<svg version="1.1" xmlns="http://www.w3.org/2000/svg" xmlns:xlink="http://www.w3.org/1999/xlink" width="1751" height="796" viewBox="0 0 1751 796"><defs/><g transform="matrix(1,0,0,1,0,0)"><g><g><g><path fill="none" stroke="#d3d3d3" paint-order="fill stroke markers" d=" M 0 0 L 1200 0" stroke-miterlimit="10" stroke-opacity="0.8" stroke-dasharray="5"/></g><g><path fill="none" stroke="#d3d3d3" paint-order="fill stroke markers" d=" M 0 0 L 0 800" stroke-miterlimit="10" stroke-opacity="0.8" stroke-dasharray="5"/></g></g><g id="_B639C617-6A2D-466C-B20B-87042D4903EA" bpmn2nodeid="_B639C617-6A2D-466C-B20B-87042D4903EA" transform="matrix(1,0,0,1,1441,15)"><g><path fill="none" stroke="none"/></g><g transform="matrix(1,0,0,1,0,0)"><path fill="#ffffff" stroke="none" id="_B639C617-6A2D-466C-B20B-87042D4903EA?shapeType=BACKGROUND" paint-order="stroke fill markers" d=" M 2 0 L 152 0 L 152 0 A 2 2 0 0 1 154 2 L 154 100 L 154 100 A 2 2 0 0 1 152 102 L 2 102 L 2 102 A 2 2 0 0 1 0 100 L 0 2 L 0 2.0000000000000004 A 2 2 0 0 1 1.9999999999999996 0 Z"/></g><g transform="matrix(1,0,0,1,0,0)"><path fill="none" stroke="#000000" id="_B639C617-6A2D-466C-B20B-87042D4903EA?shapeType=BORDER&amp;renderType=STROKE" paint-order="fill stroke markers" d=" M 2 0 L 152 0 L 152 0 A 2 2 0 0 1 154 2 L 154 100 L 154 100 A 2 2 0 0 1 152 102 L 2 102 L 2 102 A 2 2 0 0 1 0 100 L 0 2 L 0 2.0000000000000004 A 2 2 0 0 1 1.9999999999999996 0 Z" stroke-miterlimit="10" stroke-width="1.5" stroke-dasharray=""/></g><g><g transform="matrix(1,0,0,1,0,0)"><g transform="matrix(1,0,0,1,10,10)"/></g></g><g transform="matrix(1,0,0,1,30,28.5)"><text fill="#000000" stroke="none" font-family="Open Sans" font-size="12pt" font-style="normal" font-weight="normal" text-decoration="normal" x="54.25" y="12" text-anchor="middle" dominant-baseline="alphabetic">       insert         </text><text fill="#000000" stroke="none" font-family="Open Sans" font-size="12pt" font-style="normal" font-weight="normal" text-decoration="normal" x="54.25" y="27" text-anchor="middle" dominant-baseline="alphabetic">employees on </text><text fill="#000000" stroke="none" font-family="Open Sans" font-size="12pt" font-style="normal" font-weight="normal" text-decoration="normal" x="54.25" y="42" text-anchor="middle" dominant-baseline="alphabetic">        leave         </text></g></g><g transform="matrix(1,0,0,1,1441,15)"/><g id="_32CCC486-E7EC-46D9-A408-A01CC8735F30" bpmn2nodeid="_32CCC486-E7EC-46D9-A408-A01CC8735F30" transform="matrix(1,0,0,1,1218,433)"><g><path fill="none" stroke="none"/></g><g transform="matrix(0.125,0,0,0.125,0,0)"><g transform="matrix(1,0,0,1,0,0)"><path fill="#fce7e7" stroke="none" id="_32CCC486-E7EC-46D9-A408-A01CC8735F30?shapeType=BACKGROUND" paint-order="stroke fill markers" d=" M 0 0 M 444 224 C 444 263.9 434.2 300.8 414.4 334.5 C 394.7 368.2 368 394.9 334.4 414.5 C 300.79999999999995 434.1 263.9 444 224 444 C 184.10000000000002 444 147.2 434.2 113.5 414.4 C 79.8 394.7 53.1 368 33.5 334.4 C 13.899999999999999 300.79999999999995 4 263.9 4 224 C 4 184.10000000000002 13.8 147.2 33.6 113.5 C 53.400000000000006 79.80000000000001 80.1 53.1 113.6 33.5 C 147.1 13.899999999999999 184.1 4 224 4 C 263.9 4 300.8 13.8 334.5 33.6 C 368.2 53.400000000000006 394.9 80.1 414.5 113.6 C 434.1 147.1 444 184.1 444 224 Z"/></g><g><g transform="matrix(1,0,0,1,0,0)"><g transform="matrix(1,0,0,1,0,0)"><path fill="#a30000" stroke="none" id="_32CCC486-E7EC-46D9-A408-A01CC8735F30?shapeType=BORDER&amp;renderType=FILL" paint-order="stroke fill markers" d=" M 0 0 M 224 0 C 100.3 0 0 100.3 0 224 C 0 347.7 100.3 448 224 448 C 347.7 448 448 347.7 448 224 C 448 100.30000000000001 347.7 0 224 0 Z M 0 0 M 224 400 C 126.8 400 48 321.2 48 224 C 48 126.80000000000001 126.8 48 224 48 C 321.2 48 400 126.8 400 224 C 400 321.2 321.2 400 224 400 Z"/></g></g></g></g><g transform="matrix(1,0,0,1,28,61)"/></g><g transform="matrix(1,0,0,1,1218,433)"/><g id="_1BAC1A73-F1DD-4E3F-ACE8-2015BB2DC570" bpmn2nodeid="_1BAC1A73-F1DD-4E3F-ACE8-2015BB2DC570" transform="matrix(1,0,0,1,1645,275)"><g><path fill="none" stroke="none"/></g><g transform="matrix(0.125,0,0,0.125,0,0)"><g transform="matrix(1,0,0,1,0,0)"><path fill="#fce7e7" stroke="none" id="_1BAC1A73-F1DD-4E3F-ACE8-2015BB2DC570?shapeType=BACKGROUND" paint-order="stroke fill markers" d=" M 0 0 M 444 224 C 444 263.9 434.2 300.8 414.4 334.5 C 394.7 368.2 368 394.9 334.4 414.5 C 300.79999999999995 434.1 263.9 444 224 444 C 184.10000000000002 444 147.2 434.2 113.5 414.4 C 79.8 394.7 53.1 368 33.5 334.4 C 13.899999999999999 300.79999999999995 4 263.9 4 224 C 4 184.10000000000002 13.8 147.2 33.6 113.5 C 53.400000000000006 79.80000000000001 80.1 53.1 113.6 33.5 C 147.1 13.899999999999999 184.1 4 224 4 C 263.9 4 300.8 13.8 334.5 33.6 C 368.2 53.400000000000006 394.9 80.1 414.5 113.6 C 434.1 147.1 444 184.1 444 224 Z"/></g><g><g transform="matrix(1,0,0,1,0,0)"><g transform="matrix(1,0,0,1,0,0)"><path fill="#a30000" stroke="none" id="_1BAC1A73-F1DD-4E3F-ACE8-2015BB2DC570?shapeType=BORDER&amp;renderType=FILL" paint-order="stroke fill markers" d=" M 0 0 M 224 0 C 100.3 0 0 100.3 0 224 C 0 347.7 100.3 448 224 448 C 347.7 448 448 347.7 448 224 C 448 100.30000000000001 347.7 0 224 0 Z M 0 0 M 224 400 C 126.8 400 48 321.2 48 224 C 48 126.80000000000001 126.8 48 224 48 C 321.2 48 400 126.8 400 224 C 400 321.2 321.2 400 224 400 Z"/></g></g></g></g><g transform="matrix(1,0,0,1,28,61)"/></g><g transform="matrix(1,0,0,1,1645,275)"/><g id="_8668D278-6A8A-4F1B-9556-EBCBFCDDB87F" bpmn2nodeid="_8668D278-6A8A-4F1B-9556-EBCBFCDDB87F" transform="matrix(1,0,0,1,1040,375)"><g><path fill="none" stroke="none"/></g><g transform="matrix(1,0,0,1,0,0)"><path fill="#ffffff" stroke="none" id="_8668D278-6A8A-4F1B-9556-EBCBFCDDB87F?shapeType=BACKGROUND" paint-order="stroke fill markers" d=" M 2 0 L 152 0 L 152 0 A 2 2 0 0 1 154 2 L 154 100 L 154 100 A 2 2 0 0 1 152 102 L 2 102 L 2 102 A 2 2 0 0 1 0 100 L 0 2 L 0 2.0000000000000004 A 2 2 0 0 1 1.9999999999999996 0 Z"/></g><g transform="matrix(1,0,0,1,0,0)"><path fill="none" stroke="#000000" id="_8668D278-6A8A-4F1B-9556-EBCBFCDDB87F?shapeType=BORDER&amp;renderType=STROKE" paint-order="fill stroke markers" d=" M 2 0 L 152 0 L 152 0 A 2 2 0 0 1 154 2 L 154 100 L 154 100 A 2 2 0 0 1 152 102 L 2 102 L 2 102 A 2 2 0 0 1 0 100 L 0 2 L 0 2.0000000000000004 A 2 2 0 0 1 1.9999999999999996 0 Z" stroke-miterlimit="10" stroke-width="1.5" stroke-dasharray=""/></g><g><g transform="matrix(0.06,0,0,0.06,9.4,9.4)"><g transform="matrix(1,0,0,1,0,0)"><path fill="#393f44" stroke="none" id="_8668D278-6A8A-4F1B-9556-EBCBFCDDB87Fundefined" paint-order="stroke fill markers" d=" M 0 0 M 197.3 130.2 C 194.4 127.29999999999998 189.60000000000002 127.29999999999998 186.70000000000002 130.2 L 130.20000000000002 186.7 C 127.30000000000001 189.6 127.30000000000001 194.39999999999998 130.20000000000002 197.29999999999998 L 186.70000000000002 253.79999999999998 C 188.10000000000002 255.29999999999998 190.10000000000002 255.99999999999997 192.00000000000003 255.99999999999997 C 193.90000000000003 255.99999999999997 195.90000000000003 255.29999999999998 197.30000000000004 253.69999999999996 C 200.20000000000005 250.79999999999995 200.20000000000005 245.99999999999997 197.30000000000004 243.09999999999997 L 146.2 192 L 197.29999999999998 140.8 C 200.2 137.9 200.2 133.1 197.3 130.2 Z"/></g><g transform="matrix(1,0,0,1,0,0)"><path fill="#393f44" stroke="none" id="_8668D278-6A8A-4F1B-9556-EBCBFCDDB87Fundefined" paint-order="stroke fill markers" d=" M 0 0 M 261.3 130.2 C 258.40000000000003 127.29999999999998 253.60000000000002 127.29999999999998 250.70000000000002 130.2 C 247.8 133.1 247.8 137.89999999999998 250.70000000000002 140.79999999999998 L 301.8 191.89999999999998 L 250.7 243 C 247.79999999999998 245.9 247.79999999999998 250.7 250.7 253.6 C 252.1 255.29999999999998 254.1 256 256 256 C 257.9 256 259.9 255.3 261.3 253.8 L 317.8 197.3 C 320.7 194.4 320.7 189.60000000000002 317.8 186.70000000000002 L 261.3 130.2 Z"/></g><g transform="matrix(1,0,0,1,0,0)"><path fill="#393f44" stroke="none" id="_8668D278-6A8A-4F1B-9556-EBCBFCDDB87Fundefined" paint-order="stroke fill markers" d=" M 0 0 M 400 32 C 400 32 152.8 32 128 32 C 62 32 64 96 64 96 L 64 288 L 1 288 C 1 288 -4 416 78 416 L 320 416 C 368 416 384 368 384 336 C 384 314.2 384 224.4 384 160 L 448 160 L 448 96 C 448 96 449 32 400 32 Z M 0 0 M 78 383.9 C 68.5 383.9 61.6 381.09999999999997 55.5 374.9 C 43.4 362.4 37.5 339.59999999999997 34.9 320 L 256.9 320 C 257.09999999999997 322.7 257.29999999999995 325.4 257.59999999999997 328.2 C 259.99999999999994 351.59999999999997 264.7 370.09999999999997 271.9 383.9 L 78 383.9 L 78 383.9 Z M 0 0 M 352 336 C 352 345.9 349.6 360.3 342.9 371 C 337.2 380.1 330.4 384 320 384 C 285 384 288 288 288 288 L 96 288 L 96 96 L 96 95.9 L 96 95.10000000000001 C 96 90.60000000000001 97.6 78.30000000000001 104.7 71.20000000000002 C 106.5 69.40000000000002 111.9 64.00000000000001 128 64.00000000000001 L 356.5 64.00000000000001 C 354.4 72.80000000000001 352.8 81.80000000000001 352.2 89.9 C 352.2 90.5 352.09999999999997 91.10000000000001 352.09999999999997 91.7 C 352.09999999999997 92 352.09999999999997 92.3 352.09999999999997 92.60000000000001 C 352 94.8 352 96 352 96 L 352 160 L 352 336 Z"/></g></g></g><g transform="matrix(1,0,0,1,60.75,43.5)"><text fill="#000000" stroke="none" font-family="Open Sans" font-size="12pt" font-style="normal" font-weight="normal" text-decoration="normal" x="16.25" y="12" text-anchor="middle" dominant-baseline="alphabetic">Task</text></g></g><g transform="matrix(1,0,0,1,1040,375)"/><g id="_8AAB3C06-2524-499C-960B-93D1E55E5302" bpmn2nodeid="_8AAB3C06-2524-499C-960B-93D1E55E5302" transform="matrix(1,0,0,1,47,222)"><g><path fill="none" stroke="none"/></g><g transform="matrix(0.125,0,0,0.125,0,0)"><g transform="matrix(1,0,0,1,0,0)"><path fill="#e8fae6" stroke="none" id="_8AAB3C06-2524-499C-960B-93D1E55E5302?shapeType=BACKGROUND" paint-order="stroke fill markers" d=" M 0 0 M 444 224 C 444 263.9 434.2 300.8 414.4 334.5 C 394.7 368.2 368 394.9 334.4 414.5 C 300.79999999999995 434.1 263.9 444 224 444 C 184.10000000000002 444 147.2 434.2 113.5 414.4 C 79.8 394.7 53.1 368 33.5 334.4 C 13.899999999999999 300.79999999999995 4 263.9 4 224 C 4 184.10000000000002 13.8 147.2 33.6 113.5 C 53.400000000000006 79.80000000000001 80.1 53.1 113.6 33.5 C 147.1 13.899999999999999 184.1 4 224 4 C 263.9 4 300.8 13.8 334.5 33.6 C 368.2 53.400000000000006 394.9 80.1 414.5 113.6 C 434.1 147.1 444 184.1 444 224 Z"/></g><g><g transform="matrix(1,0,0,1,0,0)"><g transform="matrix(1,0,0,1,0,0)"><path fill="#4aa241" stroke="none" id="_8AAB3C06-2524-499C-960B-93D1E55E5302?shapeType=BORDER&amp;renderType=FILL" paint-order="stroke fill markers" d=" M 0 0 M 224 0 C 100.3 0 0 100.3 0 224 C 0 347.7 100.3 448 224 448 C 347.7 448 448 347.7 448 224 C 448 100.30000000000001 347.7 0 224 0 Z M 0 0 M 224 432 C 109.1 432 16 338.9 16 224 C 16 109.10000000000002 109.1 16 224 16 C 338.9 16 432 109.1 432 224 C 432 338.9 338.9 432 224 432 Z"/></g></g></g></g><g transform="matrix(1,0,0,1,28,61)"/></g><g transform="matrix(1,0,0,1,47,222)"/><g id="_6BCF7616-6DDD-40F0-B306-1683701DF8C1" bpmn2nodeid="_6BCF7616-6DDD-40F0-B306-1683701DF8C1" transform="matrix(1,0,0,1,311,199)"><g><path fill="none" stroke="none"/></g><g transform="matrix(1,0,0,1,0,0)"><path fill="#ffffff" stroke="none" id="_6BCF7616-6DDD-40F0-B306-1683701DF8C1?shapeType=BACKGROUND" paint-order="stroke fill markers" d=" M 2 0 L 152 0 L 152 0 A 2 2 0 0 1 154 2 L 154 100 L 154 100 A 2 2 0 0 1 152 102 L 2 102 L 2 102 A 2 2 0 0 1 0 100 L 0 2 L 0 2.0000000000000004 A 2 2 0 0 1 1.9999999999999996 0 Z"/></g><g transform="matrix(1,0,0,1,0,0)"><path fill="none" stroke="#000000" id="_6BCF7616-6DDD-40F0-B306-1683701DF8C1?shapeType=BORDER&amp;renderType=STROKE" paint-order="fill stroke markers" d=" M 2 0 L 152 0 L 152 0 A 2 2 0 0 1 154 2 L 154 100 L 154 100 A 2 2 0 0 1 152 102 L 2 102 L 2 102 A 2 2 0 0 1 0 100 L 0 2 L 0 2.0000000000000004 A 2 2 0 0 1 1.9999999999999996 0 Z" stroke-miterlimit="10" stroke-width="1.5" stroke-dasharray=""/></g><g><g transform="matrix(1,0,0,1,0,0)"><g transform="matrix(1,0,0,1,10,10)"/></g></g><g transform="matrix(1,0,0,1,36.6484375,36)"><text fill="#000000" stroke="none" font-family="Open Sans" font-size="12pt" font-style="normal" font-weight="normal" text-decoration="normal" x="40.3515625" y="12" text-anchor="middle" dominant-baseline="alphabetic">     total      </text><text fill="#000000" stroke="none" font-family="Open Sans" font-size="12pt" font-style="normal" font-weight="normal" text-decoration="normal" x="40.3515625" y="27" text-anchor="middle" dominant-baseline="alphabetic">employees</text></g></g><g transform="matrix(1,0,0,1,311,199)"/><g id="_8A11F742-DF29-4BAB-849A-53317FE9881C" bpmn2nodeid="_8A11F742-DF29-4BAB-849A-53317FE9881C" transform="matrix(1,0,0,1,876,200)"><g><path fill="none" stroke="none"/></g><g transform="matrix(1,0,0,1,0,0)"><path fill="#ffffff" stroke="none" id="_8A11F742-DF29-4BAB-849A-53317FE9881C?shapeType=BACKGROUND" paint-order="stroke fill markers" d=" M 2 0 L 152 0 L 152 0 A 2 2 0 0 1 154 2 L 154 100 L 154 100 A 2 2 0 0 1 152 102 L 2 102 L 2 102 A 2 2 0 0 1 0 100 L 0 2 L 0 2.0000000000000004 A 2 2 0 0 1 1.9999999999999996 0 Z"/></g><g transform="matrix(1,0,0,1,0,0)"><path fill="none" stroke="#000000" id="_8A11F742-DF29-4BAB-849A-53317FE9881C?shapeType=BORDER&amp;renderType=STROKE" paint-order="fill stroke markers" d=" M 2 0 L 152 0 L 152 0 A 2 2 0 0 1 154 2 L 154 100 L 154 100 A 2 2 0 0 1 152 102 L 2 102 L 2 102 A 2 2 0 0 1 0 100 L 0 2 L 0 2.0000000000000004 A 2 2 0 0 1 1.9999999999999996 0 Z" stroke-miterlimit="10" stroke-width="1.5" stroke-dasharray=""/></g><g><g transform="matrix(1,0,0,1,0,0)"><g transform="matrix(1,0,0,1,10,10)"/></g></g><g transform="matrix(1,0,0,1,30,43.5)"><text fill="#000000" stroke="none" font-family="Open Sans" font-size="12pt" font-style="normal" font-weight="normal" text-decoration="normal" x="47.53515625" y="12" text-anchor="middle" dominant-baseline="alphabetic">LESS THAN 6</text></g></g><g transform="matrix(1,0,0,1,876,200)"/><g id="_0EB38C38-2DEA-4BAA-810F-1CAFBC1B33BE" bpmn2nodeid="_0EB38C38-2DEA-4BAA-810F-1CAFBC1B33BE" transform="matrix(1,0,0,1,488,200)"><g><path fill="none" stroke="none"/></g><g transform="matrix(1,0,0,1,0,0)"><path fill="#ffffff" stroke="none" id="_0EB38C38-2DEA-4BAA-810F-1CAFBC1B33BE?shapeType=BACKGROUND" paint-order="stroke fill markers" d=" M 2 0 L 152 0 L 152 0 A 2 2 0 0 1 154 2 L 154 100 L 154 100 A 2 2 0 0 1 152 102 L 2 102 L 2 102 A 2 2 0 0 1 0 100 L 0 2 L 0 2.0000000000000004 A 2 2 0 0 1 1.9999999999999996 0 Z"/></g><g transform="matrix(1,0,0,1,0,0)"><path fill="none" stroke="#000000" id="_0EB38C38-2DEA-4BAA-810F-1CAFBC1B33BE?shapeType=BORDER&amp;renderType=STROKE" paint-order="fill stroke markers" d=" M 2 0 L 152 0 L 152 0 A 2 2 0 0 1 154 2 L 154 100 L 154 100 A 2 2 0 0 1 152 102 L 2 102 L 2 102 A 2 2 0 0 1 0 100 L 0 2 L 0 2.0000000000000004 A 2 2 0 0 1 1.9999999999999996 0 Z" stroke-miterlimit="10" stroke-width="1.5" stroke-dasharray=""/></g><g><g transform="matrix(1,0,0,1,0,0)"><g transform="matrix(1,0,0,1,10,10)"/></g></g><g transform="matrix(1,0,0,1,49.16015625,43.5)"><text fill="#000000" stroke="none" font-family="Open Sans" font-size="12pt" font-style="normal" font-weight="normal" text-decoration="normal" x="27.83984375" y="12" text-anchor="middle" dominant-baseline="alphabetic">biomax</text></g></g><g transform="matrix(1,0,0,1,488,200)"/><g id="_FAD14D0C-1DB7-485D-B98B-46921551C93F" bpmn2nodeid="_FAD14D0C-1DB7-485D-B98B-46921551C93F" transform="matrix(1,0,0,1,1645,38)"><g><path fill="none" stroke="none"/></g><g transform="matrix(0.125,0,0,0.125,0,0)"><g transform="matrix(1,0,0,1,0,0)"><path fill="#fce7e7" stroke="none" id="_FAD14D0C-1DB7-485D-B98B-46921551C93F?shapeType=BACKGROUND" paint-order="stroke fill markers" d=" M 0 0 M 444 224 C 444 263.9 434.2 300.8 414.4 334.5 C 394.7 368.2 368 394.9 334.4 414.5 C 300.79999999999995 434.1 263.9 444 224 444 C 184.10000000000002 444 147.2 434.2 113.5 414.4 C 79.8 394.7 53.1 368 33.5 334.4 C 13.899999999999999 300.79999999999995 4 263.9 4 224 C 4 184.10000000000002 13.8 147.2 33.6 113.5 C 53.400000000000006 79.80000000000001 80.1 53.1 113.6 33.5 C 147.1 13.899999999999999 184.1 4 224 4 C 263.9 4 300.8 13.8 334.5 33.6 C 368.2 53.400000000000006 394.9 80.1 414.5 113.6 C 434.1 147.1 444 184.1 444 224 Z"/></g><g><g transform="matrix(1,0,0,1,0,0)"><g transform="matrix(1,0,0,1,0,0)"><path fill="#a30000" stroke="none" id="_FAD14D0C-1DB7-485D-B98B-46921551C93F?shapeType=BORDER&amp;renderType=FILL" paint-order="stroke fill markers" d=" M 0 0 M 224 0 C 100.3 0 0 100.3 0 224 C 0 347.7 100.3 448 224 448 C 347.7 448 448 347.7 448 224 C 448 100.30000000000001 347.7 0 224 0 Z M 0 0 M 224 400 C 126.8 400 48 321.2 48 224 C 48 126.80000000000001 126.8 48 224 48 C 321.2 48 400 126.8 400 224 C 400 321.2 321.2 400 224 400 Z"/></g></g></g></g><g transform="matrix(1,0,0,1,28,61)"/></g><g transform="matrix(1,0,0,1,1645,38)"/><g id="_8E30C4C2-06E1-417B-AE67-B86D9A358157" bpmn2nodeid="_8E30C4C2-06E1-417B-AE67-B86D9A358157" transform="matrix(1,0,0,1,1361,152)"><g><path fill="none" stroke="none"/></g><g transform="matrix(0.125,0,0,0.125,0,0)"><g transform="matrix(1,0,0,1,0,0)"><path fill="#fef4ea" stroke="none" id="_8E30C4C2-06E1-417B-AE67-B86D9A358157?shapeType=BACKGROUND" paint-order="stroke fill markers" d=" M 0 0 M 224.4 4.3 C 216.4 4.3 208.4 7.3 202.3 13.399999999999999 L 13.5 202.2 C 1.3000000000000007 214.39999999999998 1.3000000000000007 234.2 13.5 246.39999999999998 L 202.2 435.09999999999997 C 208.29999999999998 441.2 216.39999999999998 444.2 224.29999999999998 444.2 C 232.2 444.2 240.29999999999998 441.2 246.39999999999998 435.09999999999997 L 435.09999999999997 246.39999999999998 C 447.29999999999995 234.2 447.29999999999995 214.39999999999998 435.09999999999997 202.2 L 246.5 13.4 C 240.4 7.3 232.4 4.3 224.4 4.3 L 224.4 4.3 Z"/></g><g><g transform="matrix(1,0,0,1,0,0)"><g transform="matrix(1,0,0,1,0,0)"><path fill="#ec7a08" stroke="none" id="_8E30C4C2-06E1-417B-AE67-B86D9A358157?shapeType=BORDER&amp;renderType=FILL" paint-order="stroke fill markers" d=" M 0 0 M 20.8 212.7 L 213.3 20.2 C 219.60000000000002 13.899999999999999 229.70000000000002 13.899999999999999 235.9 20.2 L 428.4 212.7 C 434.7 219 434.7 229.1 428.4 235.29999999999998 L 235.9 427.8 C 229.6 434.1 219.5 434.1 213.3 427.8 L 20.8 235.3 C 14.5 229.1 14.5 218.9 20.8 212.7 L 20.8 212.7 Z M 0 0 M 0 224 C 0 232.1 3.1 240.3 9.3 246.5 L 201.5 438.7 C 213.9 451.09999999999997 234.1 451.09999999999997 246.5 438.7 L 438.7 246.5 C 444.9 240.3 448 232.1 448 224 C 448 215.9 444.9 207.7 438.7 201.5 L 246.5 9.3 C 234.1 -3.0999999999999996 213.9 -3.0999999999999996 201.5 9.3 L 9.3 201.5 C 3.1 207.7 0 215.9 0 224 L 0 224 Z"/></g></g></g><g><g transform="matrix(1,0,0,1,0,0)"><g transform="matrix(1,0,0,1,0,0)"><path fill="#ec7a08" stroke="none" id="_8E30C4C2-06E1-417B-AE67-B86D9A358157undefined" paint-order="stroke fill markers" d=" M 0 0 M 312 212 L 312 236 C 312 239.4 310.9 242.1 308.5 244.5 C 306.1 246.9 303.4 248 300 248 L 248 248 L 248 300 C 248 303.4 246.9 306.1 244.5 308.5 C 242.1 310.9 239.4 312 236 312 L 212 312 C 208.6 312 205.9 310.9 203.5 308.5 C 201.1 306.1 200 303.4 200 300 L 200 248 L 148 248 C 144.6 248 141.9 246.9 139.5 244.5 C 137.1 242.1 136 239.4 136 236 L 136 212 C 136 208.6 137.1 205.9 139.5 203.5 C 141.9 201.1 144.6 200 148 200 L 200 200 L 200 148 C 200 144.6 201.1 141.9 203.5 139.5 C 205.9 137.1 208.6 136 212 136 L 236 136 C 239.4 136 242.1 137.1 244.5 139.5 C 246.9 141.9 248 144.6 248 148 L 248 200 L 300 200 C 303.4 200 306.1 201.1 308.5 203.5 C 310.9 205.9 312 208.6 312 212 Z"/></g></g></g></g><g transform="matrix(1,0,0,1,28,61)"/></g><g transform="matrix(1,0,0,1,1361,152)"/><g id="_17EB37CC-99E3-4B85-9C56-F398A94DE294" bpmn2nodeid="_17EB37CC-99E3-4B85-9C56-F398A94DE294" transform="matrix(1,0,0,1,1089,225)"><g><path fill="none" stroke="none"/></g><g transform="matrix(0.125,0,0,0.125,0,0)"><g transform="matrix(1,0,0,1,0,0)"><path fill="#fef4ea" stroke="none" id="_17EB37CC-99E3-4B85-9C56-F398A94DE294?shapeType=BACKGROUND" paint-order="stroke fill markers" d=" M 0 0 M 224.4 4.3 C 216.4 4.3 208.4 7.3 202.3 13.399999999999999 L 13.5 202.2 C 1.3000000000000007 214.39999999999998 1.3000000000000007 234.2 13.5 246.39999999999998 L 202.2 435.09999999999997 C 208.29999999999998 441.2 216.39999999999998 444.2 224.29999999999998 444.2 C 232.2 444.2 240.29999999999998 441.2 246.39999999999998 435.09999999999997 L 435.09999999999997 246.39999999999998 C 447.29999999999995 234.2 447.29999999999995 214.39999999999998 435.09999999999997 202.2 L 246.5 13.4 C 240.4 7.3 232.4 4.3 224.4 4.3 L 224.4 4.3 Z"/></g><g><g transform="matrix(1,0,0,1,0,0)"><g transform="matrix(1,0,0,1,0,0)"><path fill="#ec7a08" stroke="none" id="_17EB37CC-99E3-4B85-9C56-F398A94DE294?shapeType=BORDER&amp;renderType=FILL" paint-order="stroke fill markers" d=" M 0 0 M 20.8 212.7 L 213.3 20.2 C 219.60000000000002 13.899999999999999 229.70000000000002 13.899999999999999 235.9 20.2 L 428.4 212.7 C 434.7 219 434.7 229.1 428.4 235.29999999999998 L 235.9 427.8 C 229.6 434.1 219.5 434.1 213.3 427.8 L 20.8 235.3 C 14.5 229.1 14.5 218.9 20.8 212.7 L 20.8 212.7 Z M 0 0 M 0 224 C 0 232.1 3.1 240.3 9.3 246.5 L 201.5 438.7 C 213.9 451.09999999999997 234.1 451.09999999999997 246.5 438.7 L 438.7 246.5 C 444.9 240.3 448 232.1 448 224 C 448 215.9 444.9 207.7 438.7 201.5 L 246.5 9.3 C 234.1 -3.0999999999999996 213.9 -3.0999999999999996 201.5 9.3 L 9.3 201.5 C 3.1 207.7 0 215.9 0 224 L 0 224 Z"/></g></g></g><g><g transform="matrix(1,0,0,1,0,0)"><g transform="matrix(1,0,0,1,0,0)"><path fill="#ec7a08" stroke="none" id="_17EB37CC-99E3-4B85-9C56-F398A94DE294undefined" paint-order="stroke fill markers" d=" M 0 0 M 298.2 269.2 C 298.2 272.59999999999997 297.09999999999997 275.3 294.7 277.7 L 277.7 294.7 C 275.3 297.09999999999997 272.59999999999997 298.2 269.2 298.2 C 265.8 298.2 263.09999999999997 297.09999999999997 260.7 294.7 L 224 258 L 187.2 294.8 C 184.79999999999998 297.2 182.1 298.3 178.7 298.3 C 175.29999999999998 298.3 172.6 297.2 170.2 294.8 L 153.2 277.8 C 150.79999999999998 275.40000000000003 149.7 272.7 149.7 269.3 C 149.7 265.90000000000003 150.79999999999998 263.2 153.2 260.8 L 190 224 L 153.2 187.2 C 150.79999999999998 184.79999999999998 149.7 182 149.7 178.7 C 149.7 175.29999999999998 150.79999999999998 172.5 153.2 170.2 L 170.2 153.2 C 172.6 150.79999999999998 175.29999999999998 149.7 178.7 149.7 C 182.1 149.7 184.79999999999998 150.79999999999998 187.2 153.2 L 224 190 L 260.8 153.2 C 263.2 150.79999999999998 265.90000000000003 149.7 269.3 149.7 C 272.7 149.7 275.40000000000003 150.79999999999998 277.8 153.2 L 294.8 170.2 C 297.2 172.5 298.3 175.29999999999998 298.3 178.7 C 298.3 182 297.2 184.79999999999998 294.8 187.2 L 258 224 L 294.8 260.8 C 297.1 263.1 298.2 265.9 298.2 269.2 Z"/></g></g></g></g><g transform="matrix(1,0,0,1,7.87890625,61)"><text fill="#000000" stroke="none" font-family="Open Sans" font-size="12pt" font-style="normal" font-weight="normal" text-decoration="normal" x="20.12109375" y="12" text-anchor="middle" dominant-baseline="alphabetic">FIRST</text></g></g><g transform="matrix(1,0,0,1,1089,225)"/><g id="_FDFB4B4D-4804-41F8-B2C7-29B355FA625F" bpmn2nodeid="_FDFB4B4D-4804-41F8-B2C7-29B355FA625F" transform="matrix(1,0,0,1,1169,257)"><g><path fill="none" stroke="none"/></g><g transform="matrix(1,0,0,1,0,0)"><path fill="#ffffff" stroke="none" id="_FDFB4B4D-4804-41F8-B2C7-29B355FA625F?shapeType=BACKGROUND" paint-order="stroke fill markers" d=" M 2 0 L 152 0 L 152 0 A 2 2 0 0 1 154 2 L 154 100 L 154 100 A 2 2 0 0 1 152 102 L 2 102 L 2 102 A 2 2 0 0 1 0 100 L 0 2 L 0 2.0000000000000004 A 2 2 0 0 1 1.9999999999999996 0 Z"/></g><g transform="matrix(1,0,0,1,0,0)"><path fill="none" stroke="#000000" id="_FDFB4B4D-4804-41F8-B2C7-29B355FA625F?shapeType=BORDER&amp;renderType=STROKE" paint-order="fill stroke markers" d=" M 2 0 L 152 0 L 152 0 A 2 2 0 0 1 154 2 L 154 100 L 154 100 A 2 2 0 0 1 152 102 L 2 102 L 2 102 A 2 2 0 0 1 0 100 L 0 2 L 0 2.0000000000000004 A 2 2 0 0 1 1.9999999999999996 0 Z" stroke-miterlimit="10" stroke-width="1.5" stroke-dasharray=""/></g><g><g transform="matrix(1,0,0,1,0,0)"><g transform="matrix(1,0,0,1,10,10)"/></g></g><g transform="matrix(1,0,0,1,30,28.5)"><text fill="#000000" stroke="none" font-family="Open Sans" font-size="12pt" font-style="normal" font-weight="normal" text-decoration="normal" x="54.25" y="12" text-anchor="middle" dominant-baseline="alphabetic">       insert         </text><text fill="#000000" stroke="none" font-family="Open Sans" font-size="12pt" font-style="normal" font-weight="normal" text-decoration="normal" x="54.25" y="27" text-anchor="middle" dominant-baseline="alphabetic">employees on </text><text fill="#000000" stroke="none" font-family="Open Sans" font-size="12pt" font-style="normal" font-weight="normal" text-decoration="normal" x="54.25" y="42" text-anchor="middle" dominant-baseline="alphabetic">        leave         </text></g></g><g transform="matrix(1,0,0,1,1169,257)"/><g id="_5A12361D-F5A0-452C-847C-67F4CBAD9F1B" bpmn2nodeid="_5A12361D-F5A0-452C-847C-67F4CBAD9F1B" transform="matrix(1,0,0,1,1161,129)"><g><path fill="none" stroke="none"/></g><g transform="matrix(1,0,0,1,0,0)"><path fill="#ffffff" stroke="none" id="_5A12361D-F5A0-452C-847C-67F4CBAD9F1B?shapeType=BACKGROUND" paint-order="stroke fill markers" d=" M 2 0 L 152 0 L 152 0 A 2 2 0 0 1 154 2 L 154 100 L 154 100 A 2 2 0 0 1 152 102 L 2 102 L 2 102 A 2 2 0 0 1 0 100 L 0 2 L 0 2.0000000000000004 A 2 2 0 0 1 1.9999999999999996 0 Z"/></g><g transform="matrix(1,0,0,1,0,0)"><path fill="none" stroke="#000000" id="_5A12361D-F5A0-452C-847C-67F4CBAD9F1B?shapeType=BORDER&amp;renderType=STROKE" paint-order="fill stroke markers" d=" M 2 0 L 152 0 L 152 0 A 2 2 0 0 1 154 2 L 154 100 L 154 100 A 2 2 0 0 1 152 102 L 2 102 L 2 102 A 2 2 0 0 1 0 100 L 0 2 L 0 2.0000000000000004 A 2 2 0 0 1 1.9999999999999996 0 Z" stroke-miterlimit="10" stroke-width="1.5" stroke-dasharray=""/></g><g><g transform="matrix(0.06,0,0,0.06,9.4,9.4)"><g transform="matrix(1,0,0,1,0,0)"><path fill="#393f44" stroke="none" id="_5A12361D-F5A0-452C-847C-67F4CBAD9F1Bundefined" paint-order="stroke fill markers" d=" M 0 0 M 197.3 130.2 C 194.4 127.29999999999998 189.60000000000002 127.29999999999998 186.70000000000002 130.2 L 130.20000000000002 186.7 C 127.30000000000001 189.6 127.30000000000001 194.39999999999998 130.20000000000002 197.29999999999998 L 186.70000000000002 253.79999999999998 C 188.10000000000002 255.29999999999998 190.10000000000002 255.99999999999997 192.00000000000003 255.99999999999997 C 193.90000000000003 255.99999999999997 195.90000000000003 255.29999999999998 197.30000000000004 253.69999999999996 C 200.20000000000005 250.79999999999995 200.20000000000005 245.99999999999997 197.30000000000004 243.09999999999997 L 146.2 192 L 197.29999999999998 140.8 C 200.2 137.9 200.2 133.1 197.3 130.2 Z"/></g><g transform="matrix(1,0,0,1,0,0)"><path fill="#393f44" stroke="none" id="_5A12361D-F5A0-452C-847C-67F4CBAD9F1Bundefined" paint-order="stroke fill markers" d=" M 0 0 M 261.3 130.2 C 258.40000000000003 127.29999999999998 253.60000000000002 127.29999999999998 250.70000000000002 130.2 C 247.8 133.1 247.8 137.89999999999998 250.70000000000002 140.79999999999998 L 301.8 191.89999999999998 L 250.7 243 C 247.79999999999998 245.9 247.79999999999998 250.7 250.7 253.6 C 252.1 255.29999999999998 254.1 256 256 256 C 257.9 256 259.9 255.3 261.3 253.8 L 317.8 197.3 C 320.7 194.4 320.7 189.60000000000002 317.8 186.70000000000002 L 261.3 130.2 Z"/></g><g transform="matrix(1,0,0,1,0,0)"><path fill="#393f44" stroke="none" id="_5A12361D-F5A0-452C-847C-67F4CBAD9F1Bundefined" paint-order="stroke fill markers" d=" M 0 0 M 400 32 C 400 32 152.8 32 128 32 C 62 32 64 96 64 96 L 64 288 L 1 288 C 1 288 -4 416 78 416 L 320 416 C 368 416 384 368 384 336 C 384 314.2 384 224.4 384 160 L 448 160 L 448 96 C 448 96 449 32 400 32 Z M 0 0 M 78 383.9 C 68.5 383.9 61.6 381.09999999999997 55.5 374.9 C 43.4 362.4 37.5 339.59999999999997 34.9 320 L 256.9 320 C 257.09999999999997 322.7 257.29999999999995 325.4 257.59999999999997 328.2 C 259.99999999999994 351.59999999999997 264.7 370.09999999999997 271.9 383.9 L 78 383.9 L 78 383.9 Z M 0 0 M 352 336 C 352 345.9 349.6 360.3 342.9 371 C 337.2 380.1 330.4 384 320 384 C 285 384 288 288 288 288 L 96 288 L 96 96 L 96 95.9 L 96 95.10000000000001 C 96 90.60000000000001 97.6 78.30000000000001 104.7 71.20000000000002 C 106.5 69.40000000000002 111.9 64.00000000000001 128 64.00000000000001 L 356.5 64.00000000000001 C 354.4 72.80000000000001 352.8 81.80000000000001 352.2 89.9 C 352.2 90.5 352.09999999999997 91.10000000000001 352.09999999999997 91.7 C 352.09999999999997 92 352.09999999999997 92.3 352.09999999999997 92.60000000000001 C 352 94.8 352 96 352 96 L 352 160 L 352 336 Z"/></g></g></g><g transform="matrix(1,0,0,1,59.9296875,43.5)"><text fill="#000000" stroke="none" font-family="Open Sans" font-size="12pt" font-style="normal" font-weight="normal" text-decoration="normal" x="17.0703125" y="12" text-anchor="middle" dominant-baseline="alphabetic">logic</text></g></g><g transform="matrix(1,0,0,1,1161,129)"/><g id="_494C51D6-7F20-4E64-9703-A5DB6F6329D4" bpmn2nodeid="_494C51D6-7F20-4E64-9703-A5DB6F6329D4" transform="matrix(1,0,0,1,1089,690)"><g><path fill="none" stroke="none"/></g><g transform="matrix(0.125,0,0,0.125,0,0)"><g transform="matrix(1,0,0,1,0,0)"><path fill="#fce7e7" stroke="none" id="_494C51D6-7F20-4E64-9703-A5DB6F6329D4?shapeType=BACKGROUND" paint-order="stroke fill markers" d=" M 0 0 M 444 224 C 444 263.9 434.2 300.8 414.4 334.5 C 394.7 368.2 368 394.9 334.4 414.5 C 300.79999999999995 434.1 263.9 444 224 444 C 184.10000000000002 444 147.2 434.2 113.5 414.4 C 79.8 394.7 53.1 368 33.5 334.4 C 13.899999999999999 300.79999999999995 4 263.9 4 224 C 4 184.10000000000002 13.8 147.2 33.6 113.5 C 53.400000000000006 79.80000000000001 80.1 53.1 113.6 33.5 C 147.1 13.899999999999999 184.1 4 224 4 C 263.9 4 300.8 13.8 334.5 33.6 C 368.2 53.400000000000006 394.9 80.1 414.5 113.6 C 434.1 147.1 444 184.1 444 224 Z"/></g><g><g transform="matrix(1,0,0,1,0,0)"><g transform="matrix(1,0,0,1,0,0)"><path fill="#a30000" stroke="none" id="_494C51D6-7F20-4E64-9703-A5DB6F6329D4?shapeType=BORDER&amp;renderType=FILL" paint-order="stroke fill markers" d=" M 0 0 M 224 0 C 100.3 0 0 100.3 0 224 C 0 347.7 100.3 448 224 448 C 347.7 448 448 347.7 448 224 C 448 100.30000000000001 347.7 0 224 0 Z M 0 0 M 224 400 C 126.8 400 48 321.2 48 224 C 48 126.80000000000001 126.8 48 224 48 C 321.2 48 400 126.8 400 224 C 400 321.2 321.2 400 224 400 Z"/></g></g></g></g><g transform="matrix(1,0,0,1,28,61)"/></g><g transform="matrix(1,0,0,1,1089,690)"/><g id="_20D1573A-902A-4F98-A4A9-526687A7D745" bpmn2nodeid="_20D1573A-902A-4F98-A4A9-526687A7D745" transform="matrix(1,0,0,1,1041,539)"><g><path fill="none" stroke="none"/></g><g transform="matrix(1,0,0,1,0,0)"><path fill="#ffffff" stroke="none" id="_20D1573A-902A-4F98-A4A9-526687A7D745?shapeType=BACKGROUND" paint-order="stroke fill markers" d=" M 2 0 L 152 0 L 152 0 A 2 2 0 0 1 154 2 L 154 100 L 154 100 A 2 2 0 0 1 152 102 L 2 102 L 2 102 A 2 2 0 0 1 0 100 L 0 2 L 0 2.0000000000000004 A 2 2 0 0 1 1.9999999999999996 0 Z"/></g><g transform="matrix(1,0,0,1,0,0)"><path fill="none" stroke="#000000" id="_20D1573A-902A-4F98-A4A9-526687A7D745?shapeType=BORDER&amp;renderType=STROKE" paint-order="fill stroke markers" d=" M 2 0 L 152 0 L 152 0 A 2 2 0 0 1 154 2 L 154 100 L 154 100 A 2 2 0 0 1 152 102 L 2 102 L 2 102 A 2 2 0 0 1 0 100 L 0 2 L 0 2.0000000000000004 A 2 2 0 0 1 1.9999999999999996 0 Z" stroke-miterlimit="10" stroke-width="1.5" stroke-dasharray=""/></g><g><g transform="matrix(1,0,0,1,0,0)"><g transform="matrix(1,0,0,1,10,10)"/></g></g><g transform="matrix(1,0,0,1,30,36)"><text fill="#000000" stroke="none" font-family="Open Sans" font-size="12pt" font-style="normal" font-weight="normal" text-decoration="normal" x="50.875" y="12" text-anchor="middle" dominant-baseline="alphabetic">insert absent </text><text fill="#000000" stroke="none" font-family="Open Sans" font-size="12pt" font-style="normal" font-weight="normal" text-decoration="normal" x="50.875" y="27" text-anchor="middle" dominant-baseline="alphabetic">  employees   </text></g></g><g transform="matrix(1,0,0,1,1041,539)"/><g id="_418BB9F3-0B5E-45D5-A27E-8EDCD39D310D" bpmn2nodeid="_418BB9F3-0B5E-45D5-A27E-8EDCD39D310D" transform="matrix(1,0,0,1,1367,275)"><g><path fill="none" stroke="none"/></g><g transform="matrix(0.125,0,0,0.125,0,0)"><g transform="matrix(1,0,0,1,0,0)"><path fill="#fef4ea" stroke="none" id="_418BB9F3-0B5E-45D5-A27E-8EDCD39D310D?shapeType=BACKGROUND" paint-order="stroke fill markers" d=" M 0 0 M 224.4 4.3 C 216.4 4.3 208.4 7.3 202.3 13.399999999999999 L 13.5 202.2 C 1.3000000000000007 214.39999999999998 1.3000000000000007 234.2 13.5 246.39999999999998 L 202.2 435.09999999999997 C 208.29999999999998 441.2 216.39999999999998 444.2 224.29999999999998 444.2 C 232.2 444.2 240.29999999999998 441.2 246.39999999999998 435.09999999999997 L 435.09999999999997 246.39999999999998 C 447.29999999999995 234.2 447.29999999999995 214.39999999999998 435.09999999999997 202.2 L 246.5 13.4 C 240.4 7.3 232.4 4.3 224.4 4.3 L 224.4 4.3 Z"/></g><g><g transform="matrix(1,0,0,1,0,0)"><g transform="matrix(1,0,0,1,0,0)"><path fill="#ec7a08" stroke="none" id="_418BB9F3-0B5E-45D5-A27E-8EDCD39D310D?shapeType=BORDER&amp;renderType=FILL" paint-order="stroke fill markers" d=" M 0 0 M 20.8 212.7 L 213.3 20.2 C 219.60000000000002 13.899999999999999 229.70000000000002 13.899999999999999 235.9 20.2 L 428.4 212.7 C 434.7 219 434.7 229.1 428.4 235.29999999999998 L 235.9 427.8 C 229.6 434.1 219.5 434.1 213.3 427.8 L 20.8 235.3 C 14.5 229.1 14.5 218.9 20.8 212.7 L 20.8 212.7 Z M 0 0 M 0 224 C 0 232.1 3.1 240.3 9.3 246.5 L 201.5 438.7 C 213.9 451.09999999999997 234.1 451.09999999999997 246.5 438.7 L 438.7 246.5 C 444.9 240.3 448 232.1 448 224 C 448 215.9 444.9 207.7 438.7 201.5 L 246.5 9.3 C 234.1 -3.0999999999999996 213.9 -3.0999999999999996 201.5 9.3 L 9.3 201.5 C 3.1 207.7 0 215.9 0 224 L 0 224 Z"/></g></g></g><g><g transform="matrix(1,0,0,1,0,0)"><g transform="matrix(1,0,0,1,0,0)"><path fill="#ec7a08" stroke="none" id="_418BB9F3-0B5E-45D5-A27E-8EDCD39D310Dundefined" paint-order="stroke fill markers" d=" M 0 0 M 298.2 269.2 C 298.2 272.59999999999997 297.09999999999997 275.3 294.7 277.7 L 277.7 294.7 C 275.3 297.09999999999997 272.59999999999997 298.2 269.2 298.2 C 265.8 298.2 263.09999999999997 297.09999999999997 260.7 294.7 L 224 258 L 187.2 294.8 C 184.79999999999998 297.2 182.1 298.3 178.7 298.3 C 175.29999999999998 298.3 172.6 297.2 170.2 294.8 L 153.2 277.8 C 150.79999999999998 275.40000000000003 149.7 272.7 149.7 269.3 C 149.7 265.90000000000003 150.79999999999998 263.2 153.2 260.8 L 190 224 L 153.2 187.2 C 150.79999999999998 184.79999999999998 149.7 182 149.7 178.7 C 149.7 175.29999999999998 150.79999999999998 172.5 153.2 170.2 L 170.2 153.2 C 172.6 150.79999999999998 175.29999999999998 149.7 178.7 149.7 C 182.1 149.7 184.79999999999998 150.79999999999998 187.2 153.2 L 224 190 L 260.8 153.2 C 263.2 150.79999999999998 265.90000000000003 149.7 269.3 149.7 C 272.7 149.7 275.40000000000003 150.79999999999998 277.8 153.2 L 294.8 170.2 C 297.2 172.5 298.3 175.29999999999998 298.3 178.7 C 298.3 182 297.2 184.79999999999998 294.8 187.2 L 258 224 L 294.8 260.8 C 297.1 263.1 298.2 265.9 298.2 269.2 Z"/></g></g></g></g><g transform="matrix(1,0,0,1,28,61)"/></g><g transform="matrix(1,0,0,1,1367,275)"/><g id="_916E0957-D643-4B96-B3B7-36FAFCD1FC54" bpmn2nodeid="_916E0957-D643-4B96-B3B7-36FAFCD1FC54" transform="matrix(1,0,0,1,124,199)"><g><path fill="none" stroke="none"/></g><g transform="matrix(1,0,0,1,0,0)"><path fill="#ffffff" stroke="none" id="_916E0957-D643-4B96-B3B7-36FAFCD1FC54?shapeType=BACKGROUND" paint-order="stroke fill markers" d=" M 2 0 L 152 0 L 152 0 A 2 2 0 0 1 154 2 L 154 100 L 154 100 A 2 2 0 0 1 152 102 L 2 102 L 2 102 A 2 2 0 0 1 0 100 L 0 2 L 0 2.0000000000000004 A 2 2 0 0 1 1.9999999999999996 0 Z"/></g><g transform="matrix(1,0,0,1,0,0)"><path fill="none" stroke="#000000" id="_916E0957-D643-4B96-B3B7-36FAFCD1FC54?shapeType=BORDER&amp;renderType=STROKE" paint-order="fill stroke markers" d=" M 2 0 L 152 0 L 152 0 A 2 2 0 0 1 154 2 L 154 100 L 154 100 A 2 2 0 0 1 152 102 L 2 102 L 2 102 A 2 2 0 0 1 0 100 L 0 2 L 0 2.0000000000000004 A 2 2 0 0 1 1.9999999999999996 0 Z" stroke-miterlimit="10" stroke-width="1.5" stroke-dasharray=""/></g><g><g transform="matrix(1,0,0,1,0,0)"><g transform="matrix(1,0,0,1,10,10)"/></g></g><g transform="matrix(1,0,0,1,30,28.5)"><text fill="#000000" stroke="none" font-family="Open Sans" font-size="12pt" font-style="normal" font-weight="normal" text-decoration="normal" x="54.25" y="12" text-anchor="middle" dominant-baseline="alphabetic">     retrieve       </text><text fill="#000000" stroke="none" font-family="Open Sans" font-size="12pt" font-style="normal" font-weight="normal" text-decoration="normal" x="54.25" y="27" text-anchor="middle" dominant-baseline="alphabetic">employees on </text><text fill="#000000" stroke="none" font-family="Open Sans" font-size="12pt" font-style="normal" font-weight="normal" text-decoration="normal" x="54.25" y="42" text-anchor="middle" dominant-baseline="alphabetic">        leave         </text></g></g><g transform="matrix(1,0,0,1,124,199)"/><g id="_9A5105C3-B7EA-4631-8977-DA66B8BB358D" bpmn2nodeid="_9A5105C3-B7EA-4631-8977-DA66B8BB358D" transform="matrix(1,0,0,1,676,200)"><g><path fill="none" stroke="none"/></g><g transform="matrix(1,0,0,1,0,0)"><path fill="#ffffff" stroke="none" id="_9A5105C3-B7EA-4631-8977-DA66B8BB358D?shapeType=BACKGROUND" paint-order="stroke fill markers" d=" M 2 0 L 152 0 L 152 0 A 2 2 0 0 1 154 2 L 154 100 L 154 100 A 2 2 0 0 1 152 102 L 2 102 L 2 102 A 2 2 0 0 1 0 100 L 0 2 L 0 2.0000000000000004 A 2 2 0 0 1 1.9999999999999996 0 Z"/></g><g transform="matrix(1,0,0,1,0,0)"><path fill="none" stroke="#000000" id="_9A5105C3-B7EA-4631-8977-DA66B8BB358D?shapeType=BORDER&amp;renderType=STROKE" paint-order="fill stroke markers" d=" M 2 0 L 152 0 L 152 0 A 2 2 0 0 1 154 2 L 154 100 L 154 100 A 2 2 0 0 1 152 102 L 2 102 L 2 102 A 2 2 0 0 1 0 100 L 0 2 L 0 2.0000000000000004 A 2 2 0 0 1 1.9999999999999996 0 Z" stroke-miterlimit="10" stroke-width="1.5" stroke-dasharray=""/></g><g><g transform="matrix(1,0,0,1,0,0)"><g transform="matrix(1,0,0,1,10,10)"/></g></g><g transform="matrix(1,0,0,1,30,43.5)"><text fill="#000000" stroke="none" font-family="Open Sans" font-size="12pt" font-style="normal" font-weight="normal" text-decoration="normal" x="47.53515625" y="12" text-anchor="middle" dominant-baseline="alphabetic">LESS THAN 4</text></g></g><g transform="matrix(1,0,0,1,676,200)"/><g id="_70499719-1633-4295-A7BE-B305CE6454B5" bpmn2nodeid="_70499719-1633-4295-A7BE-B305CE6454B5"><g><path fill="none" stroke="#000000" paint-order="fill stroke markers" d=" M 103 250 L 109 250" stroke-miterlimit="10" stroke-dasharray=""/></g><g transform="matrix(1,0,0,1,103,250)"/><g transform="matrix(6.123233995736766e-17,1,-1,6.123233995736766e-17,124,245)"><path fill="#000000" stroke="#000000" paint-order="fill stroke markers" d=" M 10 15 L 0 15 L 5 0 Z" stroke-miterlimit="10" stroke-dasharray=""/></g><g transform="matrix(1,0,0,1,103,240)"/></g><g id="_0813293D-F8EC-4D7E-BE08-4F59D9B26212" bpmn2nodeid="_0813293D-F8EC-4D7E-BE08-4F59D9B26212"><g><path fill="none" stroke="#000000" paint-order="fill stroke markers" d=" M 278 250 L 296 250" stroke-miterlimit="10" stroke-dasharray=""/></g><g transform="matrix(1,0,0,1,278,250)"/><g transform="matrix(6.123233995736766e-17,1,-1,6.123233995736766e-17,311,245)"><path fill="#000000" stroke="#000000" paint-order="fill stroke markers" d=" M 10 15 L 0 15 L 5 0 Z" stroke-miterlimit="10" stroke-dasharray=""/></g><g transform="matrix(1,0,0,1,278,240)"/></g><g id="_C83EE85C-B69D-4E25-A9DA-2666FDB22EAB" bpmn2nodeid="_C83EE85C-B69D-4E25-A9DA-2666FDB22EAB"><g><path fill="none" stroke="#000000" paint-order="fill stroke markers" d=" M 465 250.77 L 473.00074994375467 250.85000749943757" stroke-miterlimit="10" stroke-dasharray=""/></g><g transform="matrix(1,0,0,1,465,250.77)"/><g transform="matrix(-0.009999500037495543,0.9999500037496876,-0.9999500037496876,-0.009999500037495543,488.0499975001875,246.00024998125156)"><path fill="#000000" stroke="#000000" paint-order="fill stroke markers" d=" M 10 15 L 0 15 L 5 0 Z" stroke-miterlimit="10" stroke-dasharray=""/></g><g transform="matrix(1,0,0,1,465.099995000375,240.8854999625031)"/></g><g id="_6082B06E-DCC8-4A0E-88EF-B18E0D0C13FF" bpmn2nodeid="_6082B06E-DCC8-4A0E-88EF-B18E0D0C13FF"><g><path fill="none" stroke="#000000" paint-order="fill stroke markers" d=" M 642 251 L 661 251" stroke-miterlimit="10" stroke-dasharray=""/></g><g transform="matrix(1,0,0,1,642,251)"/><g transform="matrix(6.123233995736766e-17,1,-1,6.123233995736766e-17,676,246)"><path fill="#000000" stroke="#000000" paint-order="fill stroke markers" d=" M 10 15 L 0 15 L 5 0 Z" stroke-miterlimit="10" stroke-dasharray=""/></g><g transform="matrix(1,0,0,1,642,241)"/></g><g id="_5CC36FBD-1B1C-4C66-8EB6-D7FE1EFA0F51" bpmn2nodeid="_5CC36FBD-1B1C-4C66-8EB6-D7FE1EFA0F51"><g><path fill="none" stroke="#000000" paint-order="fill stroke markers" d=" M 830 251 L 861 251" stroke-miterlimit="10" stroke-dasharray=""/></g><g transform="matrix(1,0,0,1,830,251)"/><g transform="matrix(6.123233995736766e-17,1,-1,6.123233995736766e-17,876,246)"><path fill="#000000" stroke="#000000" paint-order="fill stroke markers" d=" M 10 15 L 0 15 L 5 0 Z" stroke-miterlimit="10" stroke-dasharray=""/></g><g transform="matrix(1,0,0,1,830,241)"/></g><g id="_DB0A8F4C-143F-465F-B0D3-CF931D949766" bpmn2nodeid="_DB0A8F4C-143F-465F-B0D3-CF931D949766"><g><path fill="none" stroke="#000000" paint-order="fill stroke markers" d=" M 1030 252.13235294117646 L 1074.0016217092864 252.77943561337185" stroke-miterlimit="10" stroke-dasharray=""/></g><g transform="matrix(1,0,0,1,1030,252.13235294117646)"/><g transform="matrix(-0.014704292441876973,0.9998918860475785,-0.9998918860475785,-0.014704292441876973,1089.0735214622093,248.0005405697621)"><path fill="#000000" stroke="#000000" paint-order="fill stroke markers" d=" M 10 15 L 0 15 L 5 0 Z" stroke-miterlimit="10" stroke-dasharray=""/></g><g transform="matrix(1,0,0,1,1030.1470429244187,242.56725761011245)"/></g><g id="_E250AFA4-94A3-456D-85E8-E3518E395153" bpmn2nodeid="_E250AFA4-94A3-456D-85E8-E3518E395153"><g><path fill="none" stroke="#000000" paint-order="fill stroke markers" d=" M 1117 281 L 1117 360" stroke-miterlimit="10" stroke-dasharray=""/></g><g transform="matrix(1,0,0,1,1117,281)"/><g transform="matrix(-1,1.2246467991473532e-16,-1.2246467991473532e-16,-1,1122,375)"><path fill="#000000" stroke="#000000" paint-order="fill stroke markers" d=" M 10 15 L 0 15 L 5 0 Z" stroke-miterlimit="10" stroke-dasharray=""/></g><g transform="matrix(1,0,0,1,1127,328)"/></g><g id="_CA6708A2-738B-43A7-9240-3EBBBFDAB3E1" bpmn2nodeid="_CA6708A2-738B-43A7-9240-3EBBBFDAB3E1"><g><path fill="none" stroke="#000000" paint-order="fill stroke markers" d=" M 1117.4513274336284 477 L 1117.867261834739 524.0005873255157" stroke-miterlimit="10" stroke-dasharray=""/></g><g transform="matrix(1,0,0,1,1117.4513274336284,477)"/><g transform="matrix(-0.9999608449656264,0.008849211017392795,-0.008849211017392795,-0.9999608449656264,1122.999804224828,538.955753944913)"><path fill="#000000" stroke="#000000" paint-order="fill stroke markers" d=" M 10 15 L 0 15 L 5 0 Z" stroke-miterlimit="10" stroke-dasharray=""/></g><g transform="matrix(1,0,0,1,1127.4509358832847,507.91150788982605)"/></g><g id="_C7C672F2-B231-4B2D-8B1C-276EC1DDD0EC" bpmn2nodeid="_C7C672F2-B231-4B2D-8B1C-276EC1DDD0EC"><g><path fill="none" stroke="#000000" paint-order="fill stroke markers" d=" M 1128.7578125 641 L 1120.4999785892235 675.414042716538" stroke-miterlimit="10" stroke-dasharray=""/></g><g transform="matrix(1,0,0,1,1128.7578125,641)"/><g transform="matrix(-0.9723971522307979,-0.23333190594823144,0.23333190594823144,-0.9723971522307979,1121.861985761154,691.1666595297412)"><path fill="#000000" stroke="#000000" paint-order="fill stroke markers" d=" M 10 15 L 0 15 L 5 0 Z" stroke-miterlimit="10" stroke-dasharray=""/></g><g transform="matrix(1,0,0,1,1126.723971522308,663.1666809405176)"/></g><g id="_C0364352-FD51-4C06-B26B-C60EFDC37165" bpmn2nodeid="_C0364352-FD51-4C06-B26B-C60EFDC37165"><g><path fill="none" stroke="#000000" paint-order="fill stroke markers" d=" M 1116.1513604987158 225 L 1114.7874755859375 180 L 1146 180" stroke-miterlimit="10" stroke-dasharray=""/></g><g transform="matrix(1,0,0,1,1116.1513604987158,225)"/><g transform="matrix(6.123233995736766e-17,1,-1,6.123233995736766e-17,1161,175)"><path fill="#000000" stroke="#000000" paint-order="fill stroke markers" d=" M 10 15 L 0 15 L 5 0 Z" stroke-miterlimit="10" stroke-dasharray=""/></g><g transform="matrix(1,0,0,1,1124.7828857058105,202.19705357645498)"/></g><g id="_AD7D3C3B-610E-4771-835D-E24221F76688" bpmn2nodeid="_AD7D3C3B-610E-4771-835D-E24221F76688"><g><path fill="none" stroke="#000000" paint-order="fill stroke markers" d=" M 1315 180 L 1346 180" stroke-miterlimit="10" stroke-dasharray=""/></g><g transform="matrix(1,0,0,1,1315,180)"/><g transform="matrix(6.123233995736766e-17,1,-1,6.123233995736766e-17,1361,175)"><path fill="#000000" stroke="#000000" paint-order="fill stroke markers" d=" M 10 15 L 0 15 L 5 0 Z" stroke-miterlimit="10" stroke-dasharray=""/></g><g transform="matrix(1,0,0,1,1315,170)"/></g><g id="_2814DCEF-6BD6-4F21-A088-98987C4705EF" bpmn2nodeid="_2814DCEF-6BD6-4F21-A088-98987C4705EF"><g><path fill="none" stroke="#000000" paint-order="fill stroke markers" d=" M 1387.7719298245613 152 L 1384 66 L 1426 66" stroke-miterlimit="10" stroke-dasharray=""/></g><g transform="matrix(1,0,0,1,1387.7719298245613,152)"/><g transform="matrix(6.123233995736766e-17,1,-1,6.123233995736766e-17,1441,61)"><path fill="#000000" stroke="#000000" paint-order="fill stroke markers" d=" M 10 15 L 0 15 L 5 0 Z" stroke-miterlimit="10" stroke-dasharray=""/></g><g transform="matrix(1,0,0,1,1393.9903955105676,108.56182475830845)"/></g><g id="_800C7A77-EB15-4D7F-8AC9-6DA2B2AB1F36" bpmn2nodeid="_800C7A77-EB15-4D7F-8AC9-6DA2B2AB1F36"><g><path fill="none" stroke="#000000" paint-order="fill stroke markers" d=" M 1595 66 L 1630 66" stroke-miterlimit="10" stroke-dasharray=""/></g><g transform="matrix(1,0,0,1,1595,66)"/><g transform="matrix(6.123233995736766e-17,1,-1,6.123233995736766e-17,1645,61)"><path fill="#000000" stroke="#000000" paint-order="fill stroke markers" d=" M 10 15 L 0 15 L 5 0 Z" stroke-miterlimit="10" stroke-dasharray=""/></g><g transform="matrix(1,0,0,1,1595,56)"/></g><g id="_D4803DF9-42A3-4821-8915-F8AE3B64E9FD" bpmn2nodeid="_D4803DF9-42A3-4821-8915-F8AE3B64E9FD"><g><path fill="none" stroke="#000000" paint-order="fill stroke markers" d=" M 1390.7684210526315 208 L 1394.0545154331733 260.0298276919104" stroke-miterlimit="10" stroke-dasharray=""/></g><g transform="matrix(1,0,0,1,1390.7684210526315,208)"/><g transform="matrix(-0.9980114872059728,0.0630323044551158,-0.0630323044551158,-0.9980114872059728,1399.99005743603,274.68483847772444)"><path fill="#000000" stroke="#000000" paint-order="fill stroke markers" d=" M 10 15 L 0 15 L 5 0 Z" stroke-miterlimit="10" stroke-dasharray=""/></g><g transform="matrix(1,0,0,1,1400.7485359246912,240.86967695544885)"/></g><g id="_E73A55F1-242A-4D44-AA44-C15C6816E73C" bpmn2nodeid="_E73A55F1-242A-4D44-AA44-C15C6816E73C"><g><path fill="none" stroke="#000000" paint-order="fill stroke markers" d=" M 1423 300.1798561151079 L 1630.0012101669518 302.80946511068265" stroke-miterlimit="10" stroke-dasharray=""/></g><g transform="matrix(1,0,0,1,1423,300.1798561151079)"/><g transform="matrix(-0.012702325954489804,0.9999193222032196,-0.9999193222032196,-0.012702325954489804,1645.0635116297724,298.0004033889839)"><path fill="#000000" stroke="#000000" paint-order="fill stroke markers" d=" M 10 15 L 0 15 L 5 0 Z" stroke-miterlimit="10" stroke-dasharray=""/></g><g transform="matrix(1,0,0,1,1434.135091039223,291.59073483552174)"/></g><g id="_56C6BC04-DA1A-4470-807A-183151A17B67" bpmn2nodeid="_56C6BC04-DA1A-4470-807A-183151A17B67"><g><path fill="none" stroke="#000000" paint-order="fill stroke markers" d=" M 1367 304.94444444444446 L 1337.9639613145152 306.96083601982536" stroke-miterlimit="10" stroke-dasharray=""/></g><g transform="matrix(1,0,0,1,1367,304.94444444444446)"/><g transform="matrix(-0.06927759867830843,-0.9975974209676803,0.9975974209676803,-0.06927759867830843,1323.3463879933915,312.9879871048384)"><path fill="#000000" stroke="#000000" paint-order="fill stroke markers" d=" M 10 15 L 0 15 L 5 0 Z" stroke-miterlimit="10" stroke-dasharray=""/></g><g transform="matrix(1,0,0,1,1323.692775986783,296.49624801254544)"/></g><g id="_716DC490-094D-4272-B366-52CD08457CCF" bpmn2nodeid="_716DC490-094D-4272-B366-52CD08457CCF"><g><path fill="none" stroke="#000000" paint-order="fill stroke markers" d=" M 1246 359 L 1246 418" stroke-miterlimit="10" stroke-dasharray=""/></g><g transform="matrix(1,0,0,1,1246,359)"/><g transform="matrix(-1,1.2246467991473532e-16,-1.2246467991473532e-16,-1,1251,433)"><path fill="#000000" stroke="#000000" paint-order="fill stroke markers" d=" M 10 15 L 0 15 L 5 0 Z" stroke-miterlimit="10" stroke-dasharray=""/></g><g transform="matrix(1,0,0,1,1256,396)"/></g></g></g></svg>