<svg version="1.1" xmlns="http://www.w3.org/2000/svg" xmlns:xlink="http://www.w3.org/1999/xlink" width="1774" height="682" viewBox="0 0 1774 682"><defs/><g transform="matrix(1,0,0,1,0,0)"><g><g><g><path fill="none" stroke="#d3d3d3" paint-order="fill stroke markers" d=" M 0 0 L 1200 0" stroke-miterlimit="10" stroke-opacity="0.8" stroke-dasharray="5"/></g><g><path fill="none" stroke="#d3d3d3" paint-order="fill stroke markers" d=" M 0 0 L 0 800" stroke-miterlimit="10" stroke-opacity="0.8" stroke-dasharray="5"/></g></g><g id="_5C1E9EBB-3A95-4902-89D8-92E5BB0D35A5" bpmn2nodeid="_5C1E9EBB-3A95-4902-89D8-92E5BB0D35A5" transform="matrix(1,0,0,1,726,461)"><g><path fill="none" stroke="none"/></g><g transform="matrix(1,0,0,1,0,0)"><path fill="#ffffff" stroke="none" id="_5C1E9EBB-3A95-4902-89D8-92E5BB0D35A5?shapeType=BACKGROUND" paint-order="stroke fill markers" d=" M 2 0 L 152 0 L 152 0 A 2 2 0 0 1 154 2 L 154 100 L 154 100 A 2 2 0 0 1 152 102 L 2 102 L 2 102 A 2 2 0 0 1 0 100 L 0 2 L 0 2.0000000000000004 A 2 2 0 0 1 1.9999999999999996 0 Z"/></g><g transform="matrix(1,0,0,1,0,0)"><path fill="none" stroke="#000000" id="_5C1E9EBB-3A95-4902-89D8-92E5BB0D35A5?shapeType=BORDER&amp;renderType=STROKE" paint-order="fill stroke markers" d=" M 2 0 L 152 0 L 152 0 A 2 2 0 0 1 154 2 L 154 100 L 154 100 A 2 2 0 0 1 152 102 L 2 102 L 2 102 A 2 2 0 0 1 0 100 L 0 2 L 0 2.0000000000000004 A 2 2 0 0 1 1.9999999999999996 0 Z" stroke-miterlimit="10" stroke-width="1.5" stroke-dasharray=""/></g><g><g transform="matrix(1,0,0,1,0,0)"><g transform="matrix(1,0,0,1,10,10)"/></g></g><g transform="matrix(1,0,0,1,33.2265625,43.5)"><text fill="#000000" stroke="none" font-family="Open Sans" font-size="12pt" font-style="normal" font-weight="normal" text-decoration="normal" x="43.7734375" y="12" text-anchor="middle" dominant-baseline="alphabetic">ExecuteSQL</text></g></g><g transform="matrix(1,0,0,1,726,461)"/><g id="_FCFE742A-CA69-4A38-AD48-9E6D1F5AFAC5" bpmn2nodeid="_FCFE742A-CA69-4A38-AD48-9E6D1F5AFAC5" transform="matrix(1,0,0,1,1609,576)"><g><path fill="none" stroke="none"/></g><g transform="matrix(0.125,0,0,0.125,0,0)"><g transform="matrix(1,0,0,1,0,0)"><path fill="#fce7e7" stroke="none" id="_FCFE742A-CA69-4A38-AD48-9E6D1F5AFAC5?shapeType=BACKGROUND" paint-order="stroke fill markers" d=" M 0 0 M 444 224 C 444 263.9 434.2 300.8 414.4 334.5 C 394.7 368.2 368 394.9 334.4 414.5 C 300.79999999999995 434.1 263.9 444 224 444 C 184.10000000000002 444 147.2 434.2 113.5 414.4 C 79.8 394.7 53.1 368 33.5 334.4 C 13.899999999999999 300.79999999999995 4 263.9 4 224 C 4 184.10000000000002 13.8 147.2 33.6 113.5 C 53.400000000000006 79.80000000000001 80.1 53.1 113.6 33.5 C 147.1 13.899999999999999 184.1 4 224 4 C 263.9 4 300.8 13.8 334.5 33.6 C 368.2 53.400000000000006 394.9 80.1 414.5 113.6 C 434.1 147.1 444 184.1 444 224 Z"/></g><g><g transform="matrix(1,0,0,1,0,0)"><g transform="matrix(1,0,0,1,0,0)"><path fill="#a30000" stroke="none" id="_FCFE742A-CA69-4A38-AD48-9E6D1F5AFAC5?shapeType=BORDER&amp;renderType=FILL" paint-order="stroke fill markers" d=" M 0 0 M 224 0 C 100.3 0 0 100.3 0 224 C 0 347.7 100.3 448 224 448 C 347.7 448 448 347.7 448 224 C 448 100.30000000000001 347.7 0 224 0 Z M 0 0 M 224 400 C 126.8 400 48 321.2 48 224 C 48 126.80000000000001 126.8 48 224 48 C 321.2 48 400 126.8 400 224 C 400 321.2 321.2 400 224 400 Z"/></g></g></g></g><g transform="matrix(1,0,0,1,28,61)"/></g><g transform="matrix(1,0,0,1,1609,576)"/><g id="_C9F34FE0-A25C-4804-A2C8-133694AC1B11" bpmn2nodeid="_C9F34FE0-A25C-4804-A2C8-133694AC1B11" transform="matrix(1,0,0,1,1358,131)"><g><path fill="none" stroke="none"/></g><g transform="matrix(1,0,0,1,0,0)"><path fill="#ffffff" stroke="none" id="_C9F34FE0-A25C-4804-A2C8-133694AC1B11?shapeType=BACKGROUND" paint-order="stroke fill markers" d=" M 2 0 L 152 0 L 152 0 A 2 2 0 0 1 154 2 L 154 100 L 154 100 A 2 2 0 0 1 152 102 L 2 102 L 2 102 A 2 2 0 0 1 0 100 L 0 2 L 0 2.0000000000000004 A 2 2 0 0 1 1.9999999999999996 0 Z"/></g><g transform="matrix(1,0,0,1,0,0)"><path fill="none" stroke="#000000" id="_C9F34FE0-A25C-4804-A2C8-133694AC1B11?shapeType=BORDER&amp;renderType=STROKE" paint-order="fill stroke markers" d=" M 2 0 L 152 0 L 152 0 A 2 2 0 0 1 154 2 L 154 100 L 154 100 A 2 2 0 0 1 152 102 L 2 102 L 2 102 A 2 2 0 0 1 0 100 L 0 2 L 0 2.0000000000000004 A 2 2 0 0 1 1.9999999999999996 0 Z" stroke-miterlimit="10" stroke-width="1.5" stroke-dasharray=""/></g><g><g transform="matrix(1,0,0,1,0,0)"><g transform="matrix(1,0,0,1,10,10)"/></g></g><g transform="matrix(1,0,0,1,32.8671875,28.5)"><text fill="#000000" stroke="none" font-family="Open Sans" font-size="12pt" font-style="normal" font-weight="normal" text-decoration="normal" x="44.1328125" y="12" text-anchor="middle" dominant-baseline="alphabetic">attendance </text><text fill="#000000" stroke="none" font-family="Open Sans" font-size="12pt" font-style="normal" font-weight="normal" text-decoration="normal" x="44.1328125" y="27" text-anchor="middle" dominant-baseline="alphabetic">regularized </text><text fill="#000000" stroke="none" font-family="Open Sans" font-size="12pt" font-style="normal" font-weight="normal" text-decoration="normal" x="44.1328125" y="42" text-anchor="middle" dominant-baseline="alphabetic">       late        </text></g></g><g transform="matrix(1,0,0,1,1358,131)"/><g id="_62D90A10-835A-467D-A580-6B9970BE32BF" bpmn2nodeid="_62D90A10-835A-467D-A580-6B9970BE32BF" transform="matrix(1,0,0,1,1560,408)"><g><path fill="none" stroke="none"/></g><g transform="matrix(1,0,0,1,0,0)"><path fill="#ffffff" stroke="none" id="_62D90A10-835A-467D-A580-6B9970BE32BF?shapeType=BACKGROUND" paint-order="stroke fill markers" d=" M 2 0 L 152 0 L 152 0 A 2 2 0 0 1 154 2 L 154 100 L 154 100 A 2 2 0 0 1 152 102 L 2 102 L 2 102 A 2 2 0 0 1 0 100 L 0 2 L 0 2.0000000000000004 A 2 2 0 0 1 1.9999999999999996 0 Z"/></g><g transform="matrix(1,0,0,1,0,0)"><path fill="none" stroke="#000000" id="_62D90A10-835A-467D-A580-6B9970BE32BF?shapeType=BORDER&amp;renderType=STROKE" paint-order="fill stroke markers" d=" M 2 0 L 152 0 L 152 0 A 2 2 0 0 1 154 2 L 154 100 L 154 100 A 2 2 0 0 1 152 102 L 2 102 L 2 102 A 2 2 0 0 1 0 100 L 0 2 L 0 2.0000000000000004 A 2 2 0 0 1 1.9999999999999996 0 Z" stroke-miterlimit="10" stroke-width="1.5" stroke-dasharray=""/></g><g><g transform="matrix(1,0,0,1,0,0)"><g transform="matrix(1,0,0,1,10,10)"/></g></g><g transform="matrix(1,0,0,1,60.58203125,43.5)"><text fill="#000000" stroke="none" font-family="Open Sans" font-size="12pt" font-style="normal" font-weight="normal" text-decoration="normal" x="16.41796875" y="12" text-anchor="middle" dominant-baseline="alphabetic">isert</text></g></g><g transform="matrix(1,0,0,1,1560,408)"/><g id="_3D9920D5-26FB-4DEB-A28C-1B2B82D385D9" bpmn2nodeid="_3D9920D5-26FB-4DEB-A28C-1B2B82D385D9" transform="matrix(1,0,0,1,1106,131)"><g><path fill="none" stroke="none"/></g><g transform="matrix(1,0,0,1,0,0)"><path fill="#ffffff" stroke="none" id="_3D9920D5-26FB-4DEB-A28C-1B2B82D385D9?shapeType=BACKGROUND" paint-order="stroke fill markers" d=" M 2 0 L 152 0 L 152 0 A 2 2 0 0 1 154 2 L 154 100 L 154 100 A 2 2 0 0 1 152 102 L 2 102 L 2 102 A 2 2 0 0 1 0 100 L 0 2 L 0 2.0000000000000004 A 2 2 0 0 1 1.9999999999999996 0 Z"/></g><g transform="matrix(1,0,0,1,0,0)"><path fill="none" stroke="#000000" id="_3D9920D5-26FB-4DEB-A28C-1B2B82D385D9?shapeType=BORDER&amp;renderType=STROKE" paint-order="fill stroke markers" d=" M 2 0 L 152 0 L 152 0 A 2 2 0 0 1 154 2 L 154 100 L 154 100 A 2 2 0 0 1 152 102 L 2 102 L 2 102 A 2 2 0 0 1 0 100 L 0 2 L 0 2.0000000000000004 A 2 2 0 0 1 1.9999999999999996 0 Z" stroke-miterlimit="10" stroke-width="1.5" stroke-dasharray=""/></g><g><g transform="matrix(1,0,0,1,0,0)"><g transform="matrix(1,0,0,1,10,10)"/></g></g><g transform="matrix(1,0,0,1,31.57421875,43.5)"><text fill="#000000" stroke="none" font-family="Open Sans" font-size="12pt" font-style="normal" font-weight="normal" text-decoration="normal" x="45.42578125" y="12" text-anchor="middle" dominant-baseline="alphabetic">less than six</text></g></g><g transform="matrix(1,0,0,1,1106,131)"/><g id="_05BA8B8A-9B43-41B5-9FA4-20A13558BF9E" bpmn2nodeid="_05BA8B8A-9B43-41B5-9FA4-20A13558BF9E" transform="matrix(1,0,0,1,134,314)"><g><path fill="none" stroke="none"/></g><g transform="matrix(1,0,0,1,0,0)"><path fill="#ffffff" stroke="none" id="_05BA8B8A-9B43-41B5-9FA4-20A13558BF9E?shapeType=BACKGROUND" paint-order="stroke fill markers" d=" M 2 0 L 152 0 L 152 0 A 2 2 0 0 1 154 2 L 154 100 L 154 100 A 2 2 0 0 1 152 102 L 2 102 L 2 102 A 2 2 0 0 1 0 100 L 0 2 L 0 2.0000000000000004 A 2 2 0 0 1 1.9999999999999996 0 Z"/></g><g transform="matrix(1,0,0,1,0,0)"><path fill="none" stroke="#000000" id="_05BA8B8A-9B43-41B5-9FA4-20A13558BF9E?shapeType=BORDER&amp;renderType=STROKE" paint-order="fill stroke markers" d=" M 2 0 L 152 0 L 152 0 A 2 2 0 0 1 154 2 L 154 100 L 154 100 A 2 2 0 0 1 152 102 L 2 102 L 2 102 A 2 2 0 0 1 0 100 L 0 2 L 0 2.0000000000000004 A 2 2 0 0 1 1.9999999999999996 0 Z" stroke-miterlimit="10" stroke-width="1.5" stroke-dasharray=""/></g><g><g transform="matrix(1,0,0,1,0,0)"><g transform="matrix(1,0,0,1,10,10)"/></g></g><g transform="matrix(1,0,0,1,58.7421875,43.5)"><text fill="#000000" stroke="none" font-family="Open Sans" font-size="12pt" font-style="normal" font-weight="normal" text-decoration="normal" x="18.2578125" y="12" text-anchor="middle" dominant-baseline="alphabetic">early</text></g></g><g transform="matrix(1,0,0,1,134,314)"/><g id="_ADC13C54-5D29-4792-82E6-EDEDAE394E7E" bpmn2nodeid="_ADC13C54-5D29-4792-82E6-EDEDAE394E7E" transform="matrix(1,0,0,1,964,487)"><g><path fill="none" stroke="none"/></g><g transform="matrix(0.125,0,0,0.125,0,0)"><g transform="matrix(1,0,0,1,0,0)"><path fill="#fce7e7" stroke="none" id="_ADC13C54-5D29-4792-82E6-EDEDAE394E7E?shapeType=BACKGROUND" paint-order="stroke fill markers" d=" M 0 0 M 444 224 C 444 263.9 434.2 300.8 414.4 334.5 C 394.7 368.2 368 394.9 334.4 414.5 C 300.79999999999995 434.1 263.9 444 224 444 C 184.10000000000002 444 147.2 434.2 113.5 414.4 C 79.8 394.7 53.1 368 33.5 334.4 C 13.899999999999999 300.79999999999995 4 263.9 4 224 C 4 184.10000000000002 13.8 147.2 33.6 113.5 C 53.400000000000006 79.80000000000001 80.1 53.1 113.6 33.5 C 147.1 13.899999999999999 184.1 4 224 4 C 263.9 4 300.8 13.8 334.5 33.6 C 368.2 53.400000000000006 394.9 80.1 414.5 113.6 C 434.1 147.1 444 184.1 444 224 Z"/></g><g><g transform="matrix(1,0,0,1,0,0)"><g transform="matrix(1,0,0,1,0,0)"><path fill="#a30000" stroke="none" id="_ADC13C54-5D29-4792-82E6-EDEDAE394E7E?shapeType=BORDER&amp;renderType=FILL" paint-order="stroke fill markers" d=" M 0 0 M 224 0 C 100.3 0 0 100.3 0 224 C 0 347.7 100.3 448 224 448 C 347.7 448 448 347.7 448 224 C 448 100.30000000000001 347.7 0 224 0 Z M 0 0 M 224 400 C 126.8 400 48 321.2 48 224 C 48 126.80000000000001 126.8 48 224 48 C 321.2 48 400 126.8 400 224 C 400 321.2 321.2 400 224 400 Z"/></g></g></g></g><g transform="matrix(1,0,0,1,28,61)"/></g><g transform="matrix(1,0,0,1,964,487)"/><g id="_C69FDF55-9AAA-4BE2-A693-71B6CA8D6AC7" bpmn2nodeid="_C69FDF55-9AAA-4BE2-A693-71B6CA8D6AC7" transform="matrix(1,0,0,1,488,456.2782897949219)"><g><path fill="none" stroke="none"/></g><g transform="matrix(1,0,0,1,0,0)"><path fill="#ffffff" stroke="none" id="_C69FDF55-9AAA-4BE2-A693-71B6CA8D6AC7?shapeType=BACKGROUND" paint-order="stroke fill markers" d=" M 2 0 L 152 0 L 152 0 A 2 2 0 0 1 154 2 L 154 100.00003051757812 L 154 100.00003051757812 A 2 2 0 0 1 152 102.00003051757812 L 2 102.00003051757812 L 2 102.00003051757812 A 2 2 0 0 1 0 100.00003051757812 L 0 2 L 0 2.0000000000000004 A 2 2 0 0 1 1.9999999999999996 0 Z"/></g><g transform="matrix(1,0,0,1,0,0)"><path fill="none" stroke="#000000" id="_C69FDF55-9AAA-4BE2-A693-71B6CA8D6AC7?shapeType=BORDER&amp;renderType=STROKE" paint-order="fill stroke markers" d=" M 2 0 L 152 0 L 152 0 A 2 2 0 0 1 154 2 L 154 100.00003051757812 L 154 100.00003051757812 A 2 2 0 0 1 152 102.00003051757812 L 2 102.00003051757812 L 2 102.00003051757812 A 2 2 0 0 1 0 100.00003051757812 L 0 2 L 0 2.0000000000000004 A 2 2 0 0 1 1.9999999999999996 0 Z" stroke-miterlimit="10" stroke-width="1.5" stroke-dasharray=""/></g><g><g transform="matrix(0.06,0,0,0.06,9.4,9.4)"><g transform="matrix(1,0,0,1,0,0)"><path fill="#393f44" stroke="none" id="_C69FDF55-9AAA-4BE2-A693-71B6CA8D6AC7undefined" paint-order="stroke fill markers" d=" M 0 0 M 197.3 130.2 C 194.4 127.29999999999998 189.60000000000002 127.29999999999998 186.70000000000002 130.2 L 130.20000000000002 186.7 C 127.30000000000001 189.6 127.30000000000001 194.39999999999998 130.20000000000002 197.29999999999998 L 186.70000000000002 253.79999999999998 C 188.10000000000002 255.29999999999998 190.10000000000002 255.99999999999997 192.00000000000003 255.99999999999997 C 193.90000000000003 255.99999999999997 195.90000000000003 255.29999999999998 197.30000000000004 253.69999999999996 C 200.20000000000005 250.79999999999995 200.20000000000005 245.99999999999997 197.30000000000004 243.09999999999997 L 146.2 192 L 197.29999999999998 140.8 C 200.2 137.9 200.2 133.1 197.3 130.2 Z"/></g><g transform="matrix(1,0,0,1,0,0)"><path fill="#393f44" stroke="none" id="_C69FDF55-9AAA-4BE2-A693-71B6CA8D6AC7undefined" paint-order="stroke fill markers" d=" M 0 0 M 261.3 130.2 C 258.40000000000003 127.29999999999998 253.60000000000002 127.29999999999998 250.70000000000002 130.2 C 247.8 133.1 247.8 137.89999999999998 250.70000000000002 140.79999999999998 L 301.8 191.89999999999998 L 250.7 243 C 247.79999999999998 245.9 247.79999999999998 250.7 250.7 253.6 C 252.1 255.29999999999998 254.1 256 256 256 C 257.9 256 259.9 255.3 261.3 253.8 L 317.8 197.3 C 320.7 194.4 320.7 189.60000000000002 317.8 186.70000000000002 L 261.3 130.2 Z"/></g><g transform="matrix(1,0,0,1,0,0)"><path fill="#393f44" stroke="none" id="_C69FDF55-9AAA-4BE2-A693-71B6CA8D6AC7undefined" paint-order="stroke fill markers" d=" M 0 0 M 400 32 C 400 32 152.8 32 128 32 C 62 32 64 96 64 96 L 64 288 L 1 288 C 1 288 -4 416 78 416 L 320 416 C 368 416 384 368 384 336 C 384 314.2 384 224.4 384 160 L 448 160 L 448 96 C 448 96 449 32 400 32 Z M 0 0 M 78 383.9 C 68.5 383.9 61.6 381.09999999999997 55.5 374.9 C 43.4 362.4 37.5 339.59999999999997 34.9 320 L 256.9 320 C 257.09999999999997 322.7 257.29999999999995 325.4 257.59999999999997 328.2 C 259.99999999999994 351.59999999999997 264.7 370.09999999999997 271.9 383.9 L 78 383.9 L 78 383.9 Z M 0 0 M 352 336 C 352 345.9 349.6 360.3 342.9 371 C 337.2 380.1 330.4 384 320 384 C 285 384 288 288 288 288 L 96 288 L 96 96 L 96 95.9 L 96 95.10000000000001 C 96 90.60000000000001 97.6 78.30000000000001 104.7 71.20000000000002 C 106.5 69.40000000000002 111.9 64.00000000000001 128 64.00000000000001 L 356.5 64.00000000000001 C 354.4 72.80000000000001 352.8 81.80000000000001 352.2 89.9 C 352.2 90.5 352.09999999999997 91.10000000000001 352.09999999999997 91.7 C 352.09999999999997 92 352.09999999999997 92.3 352.09999999999997 92.60000000000001 C 352 94.8 352 96 352 96 L 352 160 L 352 336 Z"/></g></g></g><g transform="matrix(1,0,0,1,60.75,43.50001525878906)"><text fill="#000000" stroke="none" font-family="Open Sans" font-size="12pt" font-style="normal" font-weight="normal" text-decoration="normal" x="16.25" y="12" text-anchor="middle" dominant-baseline="alphabetic">Task</text></g></g><g transform="matrix(1,0,0,1,488,456.2782897949219)"/><g id="_3F2F1761-6E3E-4640-859F-C9D78E66745B" bpmn2nodeid="_3F2F1761-6E3E-4640-859F-C9D78E66745B" transform="matrix(1,0,0,1,1570,131)"><g><path fill="none" stroke="none"/></g><g transform="matrix(1,0,0,1,0,0)"><path fill="#ffffff" stroke="none" id="_3F2F1761-6E3E-4640-859F-C9D78E66745B?shapeType=BACKGROUND" paint-order="stroke fill markers" d=" M 2 0 L 152 0 L 152 0 A 2 2 0 0 1 154 2 L 154 100 L 154 100 A 2 2 0 0 1 152 102 L 2 102 L 2 102 A 2 2 0 0 1 0 100 L 0 2 L 0 2.0000000000000004 A 2 2 0 0 1 1.9999999999999996 0 Z"/></g><g transform="matrix(1,0,0,1,0,0)"><path fill="none" stroke="#000000" id="_3F2F1761-6E3E-4640-859F-C9D78E66745B?shapeType=BORDER&amp;renderType=STROKE" paint-order="fill stroke markers" d=" M 2 0 L 152 0 L 152 0 A 2 2 0 0 1 154 2 L 154 100 L 154 100 A 2 2 0 0 1 152 102 L 2 102 L 2 102 A 2 2 0 0 1 0 100 L 0 2 L 0 2.0000000000000004 A 2 2 0 0 1 1.9999999999999996 0 Z" stroke-miterlimit="10" stroke-width="1.5" stroke-dasharray=""/></g><g><g transform="matrix(1,0,0,1,0,0)"><g transform="matrix(1,0,0,1,10,10)"/></g></g><g transform="matrix(1,0,0,1,32.8671875,28.5)"><text fill="#000000" stroke="none" font-family="Open Sans" font-size="12pt" font-style="normal" font-weight="normal" text-decoration="normal" x="44.1328125" y="12" text-anchor="middle" dominant-baseline="alphabetic">attendance </text><text fill="#000000" stroke="none" font-family="Open Sans" font-size="12pt" font-style="normal" font-weight="normal" text-decoration="normal" x="44.1328125" y="27" text-anchor="middle" dominant-baseline="alphabetic">regularised </text><text fill="#000000" stroke="none" font-family="Open Sans" font-size="12pt" font-style="normal" font-weight="normal" text-decoration="normal" x="44.1328125" y="42" text-anchor="middle" dominant-baseline="alphabetic">      early      </text></g></g><g transform="matrix(1,0,0,1,1570,131)"/><g id="_0FF45EF1-68CC-4BEA-8149-676C643324D0" bpmn2nodeid="_0FF45EF1-68CC-4BEA-8149-676C643324D0" transform="matrix(1,0,0,1,878,131)"><g><path fill="none" stroke="none"/></g><g transform="matrix(1,0,0,1,0,0)"><path fill="#ffffff" stroke="none" id="_0FF45EF1-68CC-4BEA-8149-676C643324D0?shapeType=BACKGROUND" paint-order="stroke fill markers" d=" M 2 0 L 152 0 L 152 0 A 2 2 0 0 1 154 2 L 154 100 L 154 100 A 2 2 0 0 1 152 102 L 2 102 L 2 102 A 2 2 0 0 1 0 100 L 0 2 L 0 2.0000000000000004 A 2 2 0 0 1 1.9999999999999996 0 Z"/></g><g transform="matrix(1,0,0,1,0,0)"><path fill="none" stroke="#000000" id="_0FF45EF1-68CC-4BEA-8149-676C643324D0?shapeType=BORDER&amp;renderType=STROKE" paint-order="fill stroke markers" d=" M 2 0 L 152 0 L 152 0 A 2 2 0 0 1 154 2 L 154 100 L 154 100 A 2 2 0 0 1 152 102 L 2 102 L 2 102 A 2 2 0 0 1 0 100 L 0 2 L 0 2.0000000000000004 A 2 2 0 0 1 1.9999999999999996 0 Z" stroke-miterlimit="10" stroke-width="1.5" stroke-dasharray=""/></g><g><g transform="matrix(1,0,0,1,0,0)"><g transform="matrix(1,0,0,1,10,10)"/></g></g><g transform="matrix(1,0,0,1,44.00390625,43.5)"><text fill="#000000" stroke="none" font-family="Open Sans" font-size="12pt" font-style="normal" font-weight="normal" text-decoration="normal" x="32.99609375" y="12" text-anchor="middle" dominant-baseline="alphabetic">total Out</text></g></g><g transform="matrix(1,0,0,1,878,131)"/><g id="_2881371C-A647-4EB5-BA40-C2733997B366" bpmn2nodeid="_2881371C-A647-4EB5-BA40-C2733997B366" transform="matrix(1,0,0,1,320,314)"><g><path fill="none" stroke="none"/></g><g transform="matrix(1,0,0,1,0,0)"><path fill="#ffffff" stroke="none" id="_2881371C-A647-4EB5-BA40-C2733997B366?shapeType=BACKGROUND" paint-order="stroke fill markers" d=" M 2 0 L 152 0 L 152 0 A 2 2 0 0 1 154 2 L 154 100 L 154 100 A 2 2 0 0 1 152 102 L 2 102 L 2 102 A 2 2 0 0 1 0 100 L 0 2 L 0 2.0000000000000004 A 2 2 0 0 1 1.9999999999999996 0 Z"/></g><g transform="matrix(1,0,0,1,0,0)"><path fill="none" stroke="#000000" id="_2881371C-A647-4EB5-BA40-C2733997B366?shapeType=BORDER&amp;renderType=STROKE" paint-order="fill stroke markers" d=" M 2 0 L 152 0 L 152 0 A 2 2 0 0 1 154 2 L 154 100 L 154 100 A 2 2 0 0 1 152 102 L 2 102 L 2 102 A 2 2 0 0 1 0 100 L 0 2 L 0 2.0000000000000004 A 2 2 0 0 1 1.9999999999999996 0 Z" stroke-miterlimit="10" stroke-width="1.5" stroke-dasharray=""/></g><g><g transform="matrix(1,0,0,1,0,0)"><g transform="matrix(1,0,0,1,10,10)"/></g></g><g transform="matrix(1,0,0,1,33.2265625,43.5)"><text fill="#000000" stroke="none" font-family="Open Sans" font-size="12pt" font-style="normal" font-weight="normal" text-decoration="normal" x="43.7734375" y="12" text-anchor="middle" dominant-baseline="alphabetic">ExecuteSQL</text></g></g><g transform="matrix(1,0,0,1,320,314)"/><g id="_E58DFE4B-C91D-4A12-88E4-946BD800D92C" bpmn2nodeid="_E58DFE4B-C91D-4A12-88E4-946BD800D92C" transform="matrix(1,0,0,1,1570,270)"><g><path fill="none" stroke="none"/></g><g transform="matrix(1,0,0,1,0,0)"><path fill="#ffffff" stroke="none" id="_E58DFE4B-C91D-4A12-88E4-946BD800D92C?shapeType=BACKGROUND" paint-order="stroke fill markers" d=" M 2 0 L 152 0 L 152 0 A 2 2 0 0 1 154 2 L 154 100 L 154 100 A 2 2 0 0 1 152 102 L 2 102 L 2 102 A 2 2 0 0 1 0 100 L 0 2 L 0 2.0000000000000004 A 2 2 0 0 1 1.9999999999999996 0 Z"/></g><g transform="matrix(1,0,0,1,0,0)"><path fill="none" stroke="#000000" id="_E58DFE4B-C91D-4A12-88E4-946BD800D92C?shapeType=BORDER&amp;renderType=STROKE" paint-order="fill stroke markers" d=" M 2 0 L 152 0 L 152 0 A 2 2 0 0 1 154 2 L 154 100 L 154 100 A 2 2 0 0 1 152 102 L 2 102 L 2 102 A 2 2 0 0 1 0 100 L 0 2 L 0 2.0000000000000004 A 2 2 0 0 1 1.9999999999999996 0 Z" stroke-miterlimit="10" stroke-width="1.5" stroke-dasharray=""/></g><g><g transform="matrix(0.06,0,0,0.06,9.4,9.4)"><g transform="matrix(1,0,0,1,0,0)"><path fill="#393f44" stroke="none" id="_E58DFE4B-C91D-4A12-88E4-946BD800D92Cundefined" paint-order="stroke fill markers" d=" M 0 0 M 197.3 130.2 C 194.4 127.29999999999998 189.60000000000002 127.29999999999998 186.70000000000002 130.2 L 130.20000000000002 186.7 C 127.30000000000001 189.6 127.30000000000001 194.39999999999998 130.20000000000002 197.29999999999998 L 186.70000000000002 253.79999999999998 C 188.10000000000002 255.29999999999998 190.10000000000002 255.99999999999997 192.00000000000003 255.99999999999997 C 193.90000000000003 255.99999999999997 195.90000000000003 255.29999999999998 197.30000000000004 253.69999999999996 C 200.20000000000005 250.79999999999995 200.20000000000005 245.99999999999997 197.30000000000004 243.09999999999997 L 146.2 192 L 197.29999999999998 140.8 C 200.2 137.9 200.2 133.1 197.3 130.2 Z"/></g><g transform="matrix(1,0,0,1,0,0)"><path fill="#393f44" stroke="none" id="_E58DFE4B-C91D-4A12-88E4-946BD800D92Cundefined" paint-order="stroke fill markers" d=" M 0 0 M 261.3 130.2 C 258.40000000000003 127.29999999999998 253.60000000000002 127.29999999999998 250.70000000000002 130.2 C 247.8 133.1 247.8 137.89999999999998 250.70000000000002 140.79999999999998 L 301.8 191.89999999999998 L 250.7 243 C 247.79999999999998 245.9 247.79999999999998 250.7 250.7 253.6 C 252.1 255.29999999999998 254.1 256 256 256 C 257.9 256 259.9 255.3 261.3 253.8 L 317.8 197.3 C 320.7 194.4 320.7 189.60000000000002 317.8 186.70000000000002 L 261.3 130.2 Z"/></g><g transform="matrix(1,0,0,1,0,0)"><path fill="#393f44" stroke="none" id="_E58DFE4B-C91D-4A12-88E4-946BD800D92Cundefined" paint-order="stroke fill markers" d=" M 0 0 M 400 32 C 400 32 152.8 32 128 32 C 62 32 64 96 64 96 L 64 288 L 1 288 C 1 288 -4 416 78 416 L 320 416 C 368 416 384 368 384 336 C 384 314.2 384 224.4 384 160 L 448 160 L 448 96 C 448 96 449 32 400 32 Z M 0 0 M 78 383.9 C 68.5 383.9 61.6 381.09999999999997 55.5 374.9 C 43.4 362.4 37.5 339.59999999999997 34.9 320 L 256.9 320 C 257.09999999999997 322.7 257.29999999999995 325.4 257.59999999999997 328.2 C 259.99999999999994 351.59999999999997 264.7 370.09999999999997 271.9 383.9 L 78 383.9 L 78 383.9 Z M 0 0 M 352 336 C 352 345.9 349.6 360.3 342.9 371 C 337.2 380.1 330.4 384 320 384 C 285 384 288 288 288 288 L 96 288 L 96 96 L 96 95.9 L 96 95.10000000000001 C 96 90.60000000000001 97.6 78.30000000000001 104.7 71.20000000000002 C 106.5 69.40000000000002 111.9 64.00000000000001 128 64.00000000000001 L 356.5 64.00000000000001 C 354.4 72.80000000000001 352.8 81.80000000000001 352.2 89.9 C 352.2 90.5 352.09999999999997 91.10000000000001 352.09999999999997 91.7 C 352.09999999999997 92 352.09999999999997 92.3 352.09999999999997 92.60000000000001 C 352 94.8 352 96 352 96 L 352 160 L 352 336 Z"/></g></g></g><g transform="matrix(1,0,0,1,35,43.5)"><text fill="#000000" stroke="none" font-family="Open Sans" font-size="12pt" font-style="normal" font-weight="normal" text-decoration="normal" x="54.3984375" y="12" text-anchor="middle" dominant-baseline="alphabetic">make insert all</text></g></g><g transform="matrix(1,0,0,1,1570,270)"/><g id="_16DE4B81-80F5-4B3F-B61C-CC371C04B81F" bpmn2nodeid="_16DE4B81-80F5-4B3F-B61C-CC371C04B81F" transform="matrix(1,0,0,1,642,131)"><g><path fill="none" stroke="none"/></g><g transform="matrix(1,0,0,1,0,0)"><path fill="#ffffff" stroke="none" id="_16DE4B81-80F5-4B3F-B61C-CC371C04B81F?shapeType=BACKGROUND" paint-order="stroke fill markers" d=" M 2 0 L 152 0 L 152 0 A 2 2 0 0 1 154 2 L 154 100 L 154 100 A 2 2 0 0 1 152 102 L 2 102 L 2 102 A 2 2 0 0 1 0 100 L 0 2 L 0 2.0000000000000004 A 2 2 0 0 1 1.9999999999999996 0 Z"/></g><g transform="matrix(1,0,0,1,0,0)"><path fill="none" stroke="#000000" id="_16DE4B81-80F5-4B3F-B61C-CC371C04B81F?shapeType=BORDER&amp;renderType=STROKE" paint-order="fill stroke markers" d=" M 2 0 L 152 0 L 152 0 A 2 2 0 0 1 154 2 L 154 100 L 154 100 A 2 2 0 0 1 152 102 L 2 102 L 2 102 A 2 2 0 0 1 0 100 L 0 2 L 0 2.0000000000000004 A 2 2 0 0 1 1.9999999999999996 0 Z" stroke-miterlimit="10" stroke-width="1.5" stroke-dasharray=""/></g><g><g transform="matrix(1,0,0,1,0,0)"><g transform="matrix(1,0,0,1,10,10)"/></g></g><g transform="matrix(1,0,0,1,49.9140625,43.5)"><text fill="#000000" stroke="none" font-family="Open Sans" font-size="12pt" font-style="normal" font-weight="normal" text-decoration="normal" x="27.0859375" y="12" text-anchor="middle" dominant-baseline="alphabetic">total iN</text></g></g><g transform="matrix(1,0,0,1,642,131)"/><g id="_0AC972A9-0316-4CC6-8C11-09C26AD55F35" bpmn2nodeid="_0AC972A9-0316-4CC6-8C11-09C26AD55F35" transform="matrix(1,0,0,1,536.75,326.9245300292969)"><g><path fill="none" stroke="none"/></g><g transform="matrix(0.125,0,0,0.125,0,0)"><g transform="matrix(1,0,0,1,0,0)"><path fill="#fef4ea" stroke="none" id="_0AC972A9-0316-4CC6-8C11-09C26AD55F35?shapeType=BACKGROUND" paint-order="stroke fill markers" d=" M 0 0 M 224.4 4.3 C 216.4 4.3 208.4 7.3 202.3 13.399999999999999 L 13.5 202.2 C 1.3000000000000007 214.39999999999998 1.3000000000000007 234.2 13.5 246.39999999999998 L 202.2 435.09999999999997 C 208.29999999999998 441.2 216.39999999999998 444.2 224.29999999999998 444.2 C 232.2 444.2 240.29999999999998 441.2 246.39999999999998 435.09999999999997 L 435.09999999999997 246.39999999999998 C 447.29999999999995 234.2 447.29999999999995 214.39999999999998 435.09999999999997 202.2 L 246.5 13.4 C 240.4 7.3 232.4 4.3 224.4 4.3 L 224.4 4.3 Z"/></g><g><g transform="matrix(1,0,0,1,0,0)"><g transform="matrix(1,0,0,1,0,0)"><path fill="#ec7a08" stroke="none" id="_0AC972A9-0316-4CC6-8C11-09C26AD55F35?shapeType=BORDER&amp;renderType=FILL" paint-order="stroke fill markers" d=" M 0 0 M 20.8 212.7 L 213.3 20.2 C 219.60000000000002 13.899999999999999 229.70000000000002 13.899999999999999 235.9 20.2 L 428.4 212.7 C 434.7 219 434.7 229.1 428.4 235.29999999999998 L 235.9 427.8 C 229.6 434.1 219.5 434.1 213.3 427.8 L 20.8 235.3 C 14.5 229.1 14.5 218.9 20.8 212.7 L 20.8 212.7 Z M 0 0 M 0 224 C 0 232.1 3.1 240.3 9.3 246.5 L 201.5 438.7 C 213.9 451.09999999999997 234.1 451.09999999999997 246.5 438.7 L 438.7 246.5 C 444.9 240.3 448 232.1 448 224 C 448 215.9 444.9 207.7 438.7 201.5 L 246.5 9.3 C 234.1 -3.0999999999999996 213.9 -3.0999999999999996 201.5 9.3 L 9.3 201.5 C 3.1 207.7 0 215.9 0 224 L 0 224 Z"/></g></g></g><g><g transform="matrix(1,0,0,1,0,0)"><g transform="matrix(1,0,0,1,0,0)"><path fill="#ec7a08" stroke="none" id="_0AC972A9-0316-4CC6-8C11-09C26AD55F35undefined" paint-order="stroke fill markers" d=" M 0 0 M 312 212 L 312 236 C 312 239.4 310.9 242.1 308.5 244.5 C 306.1 246.9 303.4 248 300 248 L 248 248 L 248 300 C 248 303.4 246.9 306.1 244.5 308.5 C 242.1 310.9 239.4 312 236 312 L 212 312 C 208.6 312 205.9 310.9 203.5 308.5 C 201.1 306.1 200 303.4 200 300 L 200 248 L 148 248 C 144.6 248 141.9 246.9 139.5 244.5 C 137.1 242.1 136 239.4 136 236 L 136 212 C 136 208.6 137.1 205.9 139.5 203.5 C 141.9 201.1 144.6 200 148 200 L 200 200 L 200 148 C 200 144.6 201.1 141.9 203.5 139.5 C 205.9 137.1 208.6 136 212 136 L 236 136 C 239.4 136 242.1 137.1 244.5 139.5 C 246.9 141.9 248 144.6 248 148 L 248 200 L 300 200 C 303.4 200 306.1 201.1 308.5 203.5 C 310.9 205.9 312 208.6 312 212 Z"/></g></g></g></g><g transform="matrix(1,0,0,1,28,61)"/></g><g transform="matrix(1,0,0,1,536.75,326.9245300292969)"/><g id="_8636E230-47A5-4DCE-8105-A24747333DD6" bpmn2nodeid="_8636E230-47A5-4DCE-8105-A24747333DD6" transform="matrix(1,0,0,1,56,337)"><g><path fill="none" stroke="none"/></g><g transform="matrix(0.125,0,0,0.125,0,0)"><g transform="matrix(1,0,0,1,0,0)"><path fill="#e8fae6" stroke="none" id="_8636E230-47A5-4DCE-8105-A24747333DD6?shapeType=BACKGROUND" paint-order="stroke fill markers" d=" M 0 0 M 444 224 C 444 263.9 434.2 300.8 414.4 334.5 C 394.7 368.2 368 394.9 334.4 414.5 C 300.79999999999995 434.1 263.9 444 224 444 C 184.10000000000002 444 147.2 434.2 113.5 414.4 C 79.8 394.7 53.1 368 33.5 334.4 C 13.899999999999999 300.79999999999995 4 263.9 4 224 C 4 184.10000000000002 13.8 147.2 33.6 113.5 C 53.400000000000006 79.80000000000001 80.1 53.1 113.6 33.5 C 147.1 13.899999999999999 184.1 4 224 4 C 263.9 4 300.8 13.8 334.5 33.6 C 368.2 53.400000000000006 394.9 80.1 414.5 113.6 C 434.1 147.1 444 184.1 444 224 Z"/></g><g><g transform="matrix(1,0,0,1,0,0)"><g transform="matrix(1,0,0,1,0,0)"><path fill="#4aa241" stroke="none" id="_8636E230-47A5-4DCE-8105-A24747333DD6?shapeType=BORDER&amp;renderType=FILL" paint-order="stroke fill markers" d=" M 0 0 M 224 0 C 100.3 0 0 100.3 0 224 C 0 347.7 100.3 448 224 448 C 347.7 448 448 347.7 448 224 C 448 100.30000000000001 347.7 0 224 0 Z M 0 0 M 224 432 C 109.1 432 16 338.9 16 224 C 16 109.10000000000002 109.1 16 224 16 C 338.9 16 432 109.1 432 224 C 432 338.9 338.9 432 224 432 Z"/></g></g></g></g><g transform="matrix(1,0,0,1,28,61)"/></g><g transform="matrix(1,0,0,1,56,337)"/><g id="_661508AD-5437-46A0-B69F-7C68D629F690" bpmn2nodeid="_661508AD-5437-46A0-B69F-7C68D629F690"><g><path fill="none" stroke="#000000" paint-order="fill stroke markers" d=" M 112 365 L 119 365" stroke-miterlimit="10" stroke-dasharray=""/></g><g transform="matrix(1,0,0,1,112,365)"/><g transform="matrix(6.123233995736766e-17,1,-1,6.123233995736766e-17,134,360)"><path fill="#000000" stroke="#000000" paint-order="fill stroke markers" d=" M 10 15 L 0 15 L 5 0 Z" stroke-miterlimit="10" stroke-dasharray=""/></g><g transform="matrix(1,0,0,1,112,355)"/></g><g id="_6D491034-1376-4C7F-926A-BDA78B174F3A" bpmn2nodeid="_6D491034-1376-4C7F-926A-BDA78B174F3A"><g><path fill="none" stroke="#000000" paint-order="fill stroke markers" d=" M 288 365 L 305 365" stroke-miterlimit="10" stroke-dasharray=""/></g><g transform="matrix(1,0,0,1,288,365)"/><g transform="matrix(6.123233995736766e-17,1,-1,6.123233995736766e-17,320,360)"><path fill="#000000" stroke="#000000" paint-order="fill stroke markers" d=" M 10 15 L 0 15 L 5 0 Z" stroke-miterlimit="10" stroke-dasharray=""/></g><g transform="matrix(1,0,0,1,288,355)"/></g><g id="_34717D28-35C2-44BF-8D31-2F514AF94B57" bpmn2nodeid="_34717D28-35C2-44BF-8D31-2F514AF94B57"><g><path fill="none" stroke="#000000" paint-order="fill stroke markers" d=" M 474 360.3751941118084 L 521.7769832175054 357.5055931598039" stroke-miterlimit="10" stroke-dasharray=""/></g><g transform="matrix(1,0,0,1,474,360.3751941118084)"/><g transform="matrix(0.059954368986731,0.9982011188329749,-0.9982011188329749,0.059954368986731,536.4502281550664,351.615272030838)"><path fill="#000000" stroke="#000000" paint-order="fill stroke markers" d=" M 10 15 L 0 15 L 5 0 Z" stroke-miterlimit="10" stroke-dasharray=""/></g><g transform="matrix(1,0,0,1,474.5995436898673,348.5087246800759)"/></g><g id="_541A308A-1751-4CDC-961E-4D619540995B" bpmn2nodeid="_541A308A-1751-4CDC-961E-4D619540995B"><g><path fill="none" stroke="#000000" paint-order="fill stroke markers" d=" M 564.819065025473 382.9245300292969 L 564.9630009917646 441.2783354258783" stroke-miterlimit="10" stroke-dasharray=""/></g><g transform="matrix(1,0,0,1,564.819065025473,382.9245300292969)"/><g transform="matrix(-0.9999969579362387,0.0024666005490268745,-0.0024666005490268745,-0.9999969579362387,569.9999847896812,456.2659567921767)"><path fill="#000000" stroke="#000000" paint-order="fill stroke markers" d=" M 10 15 L 0 15 L 5 0 Z" stroke-miterlimit="10" stroke-dasharray=""/></g><g transform="matrix(1,0,0,1,574.8190346048355,419.5767439066191)"/></g><g id="_C057B6DE-A00F-4C2B-A7AB-3AD06DA303CE" bpmn2nodeid="_C057B6DE-A00F-4C2B-A7AB-3AD06DA303CE"><g><path fill="none" stroke="#000000" paint-order="fill stroke markers" d=" M 642 509.5365069845448 L 711.0064465198288 511.56027959196126" stroke-miterlimit="10" stroke-dasharray=""/></g><g transform="matrix(1,0,0,1,642,509.5365069845448)"/><g transform="matrix(-0.029314693869249155,0.9995702320114142,-0.9995702320114142,-0.029314693869249155,726.1465734693462,507.00214883994295)"><path fill="#000000" stroke="#000000" paint-order="fill stroke markers" d=" M 10 15 L 0 15 L 5 0 Z" stroke-miterlimit="10" stroke-dasharray=""/></g><g transform="matrix(1,0,0,1,642.2931469386925,500.7725511721582)"/></g><g id="_FB5E080B-8C4F-4FC8-88B4-1A8A2A900E19" bpmn2nodeid="_FB5E080B-8C4F-4FC8-88B4-1A8A2A900E19"><g><path fill="none" stroke="#000000" paint-order="fill stroke markers" d=" M 880 513.2222222222222 L 949.001889287746 514.3174903061547" stroke-miterlimit="10" stroke-dasharray=""/></g><g transform="matrix(1,0,0,1,880,513.2222222222222)"/><g transform="matrix(-0.01587101662672322,0.999874047483599,-0.999874047483599,-0.01587101662672322,964.0793550831336,509.5561853181375)"><path fill="#000000" stroke="#000000" paint-order="fill stroke markers" d=" M 10 15 L 0 15 L 5 0 Z" stroke-miterlimit="10" stroke-dasharray=""/></g><g transform="matrix(1,0,0,1,880.1587101662673,503.89014841405293)"/></g><g id="_5A2C6383-C7A7-4CDC-AF53-BAD521C456F2" bpmn2nodeid="_5A2C6383-C7A7-4CDC-AF53-BAD521C456F2"><g><path fill="none" stroke="#000000" paint-order="fill stroke markers" d=" M 564.75 326.9245300292969 L 564.75 182 L 627 182" stroke-miterlimit="10" stroke-dasharray=""/></g><g transform="matrix(1,0,0,1,564.75,326.9245300292969)"/><g transform="matrix(6.123233995736766e-17,1,-1,6.123233995736766e-17,642,177)"><path fill="#000000" stroke="#000000" paint-order="fill stroke markers" d=" M 10 15 L 0 15 L 5 0 Z" stroke-miterlimit="10" stroke-dasharray=""/></g><g transform="matrix(1,0,0,1,574.75,254.46226501464844)"/></g><g id="_6A1B0037-C5AA-4536-979A-5B2E94F6BEF5" bpmn2nodeid="_6A1B0037-C5AA-4536-979A-5B2E94F6BEF5"><g><path fill="none" stroke="#000000" paint-order="fill stroke markers" d=" M 796 165.36016949152543 L 863.299616257434 179.0169281233435" stroke-miterlimit="10" stroke-dasharray=""/></g><g transform="matrix(1,0,0,1,796,165.36016949152543)"/><g transform="matrix(-0.1988714584437679,0.9800255828377383,-0.9800255828377383,-0.1988714584437679,878.9943572922189,177.0998720858113)"><path fill="#000000" stroke="#000000" paint-order="fill stroke markers" d=" M 10 15 L 0 15 L 5 0 Z" stroke-miterlimit="10" stroke-dasharray=""/></g><g transform="matrix(1,0,0,1,797.9887145844377,163.87982891738534)"/></g><g id="_01F2355F-5240-48E3-94B0-89FB7388D5E1" bpmn2nodeid="_01F2355F-5240-48E3-94B0-89FB7388D5E1"><g><path fill="none" stroke="#000000" paint-order="fill stroke markers" d=" M 1032 182 L 1091 182" stroke-miterlimit="10" stroke-dasharray=""/></g><g transform="matrix(1,0,0,1,1032,182)"/><g transform="matrix(6.123233995736766e-17,1,-1,6.123233995736766e-17,1106,177)"><path fill="#000000" stroke="#000000" paint-order="fill stroke markers" d=" M 10 15 L 0 15 L 5 0 Z" stroke-miterlimit="10" stroke-dasharray=""/></g><g transform="matrix(1,0,0,1,1032,172)"/></g><g id="_6163009E-9242-4C42-87AA-D12A8280E345" bpmn2nodeid="_6163009E-9242-4C42-87AA-D12A8280E345"><g><path fill="none" stroke="#000000" paint-order="fill stroke markers" d=" M 1260 182 L 1343 182" stroke-miterlimit="10" stroke-dasharray=""/></g><g transform="matrix(1,0,0,1,1260,182)"/><g transform="matrix(6.123233995736766e-17,1,-1,6.123233995736766e-17,1358,177)"><path fill="#000000" stroke="#000000" paint-order="fill stroke markers" d=" M 10 15 L 0 15 L 5 0 Z" stroke-miterlimit="10" stroke-dasharray=""/></g><g transform="matrix(1,0,0,1,1260,172)"/></g><g id="_69F00C8D-5D0F-477C-82C7-AE79CD6062D2" bpmn2nodeid="_69F00C8D-5D0F-477C-82C7-AE79CD6062D2"><g><path fill="none" stroke="#000000" paint-order="fill stroke markers" d=" M 1512 182 L 1555 182" stroke-miterlimit="10" stroke-dasharray=""/></g><g transform="matrix(1,0,0,1,1512,182)"/><g transform="matrix(6.123233995736766e-17,1,-1,6.123233995736766e-17,1570,177)"><path fill="#000000" stroke="#000000" paint-order="fill stroke markers" d=" M 10 15 L 0 15 L 5 0 Z" stroke-miterlimit="10" stroke-dasharray=""/></g><g transform="matrix(1,0,0,1,1512,172)"/></g><g id="_6E55984B-E19C-4F9A-A7AC-112973D9134C" bpmn2nodeid="_6E55984B-E19C-4F9A-A7AC-112973D9134C"><g><path fill="none" stroke="#000000" paint-order="fill stroke markers" d=" M 1647 233 L 1647 255" stroke-miterlimit="10" stroke-dasharray=""/></g><g transform="matrix(1,0,0,1,1647,233)"/><g transform="matrix(-1,1.2246467991473532e-16,-1.2246467991473532e-16,-1,1652,270)"><path fill="#000000" stroke="#000000" paint-order="fill stroke markers" d=" M 10 15 L 0 15 L 5 0 Z" stroke-miterlimit="10" stroke-dasharray=""/></g><g transform="matrix(1,0,0,1,1657,251.5)"/></g><g id="_43734C25-94C7-441F-AB1B-4464EE2BF2B9" bpmn2nodeid="_43734C25-94C7-441F-AB1B-4464EE2BF2B9"><g><path fill="none" stroke="#000000" paint-order="fill stroke markers" d=" M 1643.304347826087 372 L 1641.7797660825902 393.0392280602566" stroke-miterlimit="10" stroke-dasharray=""/></g><g transform="matrix(1,0,0,1,1643.304347826087,372)"/><g transform="matrix(-0.9973847959828915,-0.07227426057847901,0.07227426057847901,-0.9973847959828915,1645.6825761538275,408.3613713028924)"><path fill="#000000" stroke="#000000" paint-order="fill stroke markers" d=" M 10 15 L 0 15 L 5 0 Z" stroke-miterlimit="10" stroke-dasharray=""/></g><g transform="matrix(1,0,0,1,1650.6695001337418,389.27725739421527)"/></g><g id="_7FD89681-BA79-446E-B145-6111F11900C2" bpmn2nodeid="_7FD89681-BA79-446E-B145-6111F11900C2"><g><path fill="none" stroke="#000000" paint-order="fill stroke markers" d=" M 1646.848275862069 510 L 1639.2137352251846 561.1642534278595" stroke-miterlimit="10" stroke-dasharray=""/></g><g transform="matrix(1,0,0,1,1646.848275862069,510)"/><g transform="matrix(-0.9890497714760299,-0.14758234834563747,0.14758234834563747,-0.9890497714760299,1641.9452488573802,576.7379117417282)"><path fill="#000000" stroke="#000000" paint-order="fill stroke markers" d=" M 10 15 L 0 15 L 5 0 Z" stroke-miterlimit="10" stroke-dasharray=""/></g><g transform="matrix(1,0,0,1,1646.8904977147604,541.5241765165437)"/></g></g></g></svg>